<?xml version="1.0" encoding="utf-8"?>
<!-- Generator: Adobe Illustrator 22.0.1, SVG Export Plug-In . SVG Version: 6.00 Build 0)  -->
<svg version="1.1" id="レイヤー_1" xmlns="http://www.w3.org/2000/svg" xmlns:xlink="http://www.w3.org/1999/xlink" x="0px"
	 y="0px" viewBox="0 0 12.083 6.587" style="enable-background:new 0 0 12.083 6.587;" xml:space="preserve">
<style type="text/css">
	.st0{fill:#D9D9D9;}
</style>
<g>
	<path class="st0" d="M11.434,0.64l-0.017,0.053c0.458,0.157,0.699,0.818,0.516,1.414c-0.083,0.271-0.244,0.505-0.453,0.659
		l-0.026,0.019l0.001,0.033c0.004,0.233-0.066,0.464-0.202,0.669c-0.285,0.428-0.79,0.622-1.2,0.461l-0.032-0.013l-0.028,0.02
		C9.878,4.038,9.75,4.097,9.612,4.132C9.349,4.197,9.08,4.165,8.853,4.043C8.777,4.002,8.728,3.96,8.669,3.918
		C8.653,3.883,8.645,3.845,8.625,3.813C8.64,3.84,8.641,3.875,8.65,3.905C8.518,3.808,8.416,3.71,8.376,3.606l-0.052,0.02
		c0.068,0.183,0.199,0.327,0.36,0.443C8.69,4.31,8.583,4.589,8.43,4.761C8.314,4.893,8.153,4.978,7.978,5L7.883,5.006l0.032,0.082
		c0.061,0.29-0.019,0.596-0.216,0.818c-0.343,0.387-0.938,0.423-1.325,0.08C6.359,5.971,6.344,5.957,6.329,5.942L6.306,5.881
		L6.245,5.927c-0.28,0.132-0.61,0.084-0.841-0.121C5.295,5.709,5.175,5.589,5.092,5.46C5.12,5.299,5.127,5.137,5.089,4.976
		c0.45-0.052,0.838-0.349,1.004-0.775c0.231-0.594-0.037-1.269-0.6-1.547c0.044-0.069,0.082-0.142,0.111-0.219
		c0.242-0.621-0.058-1.321-0.668-1.578c0.533,0.229,0.743,0.98,0.531,1.525C5.432,2.474,5.384,2.56,5.324,2.64L5.267,2.716
		l0.089,0.036C5.9,2.973,6.17,3.599,5.957,4.147C5.801,4.548,5.422,4.818,4.992,4.836L4.897,4.84l0.029,0.091
		c0.074,0.237,0.066,0.484-0.024,0.715C4.685,6.203,4.056,6.479,3.5,6.263C3.433,6.237,3.368,6.204,3.308,6.165L3.262,6.136
		L3.221,6.171c-0.304,0.26-0.724,0.331-1.096,0.186C1.903,6.271,1.72,6.119,1.596,5.917L1.566,5.869L1.513,5.884
		C1.285,5.949,1.047,5.938,0.825,5.852C0.437,5.701,0.043,5.393,0,5.005c0.058,0.429,0.341,0.815,0.772,0.983
		C1.007,6.08,1.257,6.097,1.5,6.039c0.14,0.207,0.336,0.363,0.571,0.455c0.406,0.158,0.862,0.09,1.203-0.177
		C3.33,6.349,3.387,6.376,3.447,6.4C4.078,6.645,4.792,6.332,5.038,5.7c0.016-0.041,0.017-0.084,0.028-0.125
		c0.051,0.127,0.131,0.244,0.24,0.341C5.569,6.148,5.938,6.21,6.26,6.08c0.006,0.005,0.011,0.01,0.017,0.015
		c0.448,0.397,1.135,0.355,1.532-0.092c0.21-0.237,0.306-0.558,0.262-0.87C8.253,5.094,8.417,4.998,8.54,4.859
		c0.188-0.212,0.248-0.49,0.197-0.749c0.021,0.013,0.034,0.032,0.056,0.044c0.219,0.118,0.472,0.161,0.725,0.124
		C9.56,4.272,9.601,4.264,9.642,4.254c0.143-0.035,0.276-0.095,0.395-0.176c0.459,0.16,1.011-0.057,1.319-0.52
		c0.144-0.217,0.221-0.462,0.223-0.709c0.218-0.17,0.386-0.42,0.473-0.704c0.039-0.126,0.061-0.254,0.065-0.383
		C12.139,1.224,11.864,0.774,11.434,0.64z"/>
	<path class="st0" d="M7.433,1.506C7.427,1.611,7.448,1.716,7.493,1.811C7.644,2.132,8.029,2.27,8.35,2.119
		c0.29-0.137,0.434-0.462,0.343-0.766C9.01,1.155,9.134,0.744,8.973,0.402C8.876,0.196,8.696,0.055,8.491,0
		C8.69,0.043,8.825,0.232,8.918,0.43c0.15,0.318,0.022,0.704-0.283,0.878L8.61,1.322l0.009,0.027
		c0.097,0.278-0.032,0.583-0.299,0.709C8.034,2.193,7.69,2.069,7.555,1.782c-0.044-0.094-0.062-0.197-0.052-0.3l0.003-0.031
		L7.475,1.445c-0.213-0.04-0.442-0.16-0.549-0.348C7.023,1.304,7.211,1.455,7.433,1.506z"/>
</g>
</svg>
