<?xml version="1.0" encoding="utf-8"?>
<!-- Generator: Adobe Illustrator 22.0.1, SVG Export Plug-In . SVG Version: 6.00 Build 0)  -->
<svg version="1.1" id="レイヤー_1" xmlns="http://www.w3.org/2000/svg" xmlns:xlink="http://www.w3.org/1999/xlink" x="0px"
	 y="0px" viewBox="0 0 20 19.962" style="enable-background:new 0 0 20 19.962;" xml:space="preserve">
<g>
	<path d="M8.584,17.158c-0.299,0-0.601-0.016-0.905-0.048c-4.703-0.495-8.127-4.725-7.632-9.428C0.287,5.403,1.4,3.354,3.181,1.913
		c1.781-1.441,4.01-2.107,6.296-1.863c4.703,0.495,8.127,4.725,7.632,9.428l0,0C16.645,13.877,12.914,17.158,8.584,17.158z
		 M8.564,0.845c-1.764,0-3.461,0.598-4.852,1.724c-1.606,1.3-2.609,3.147-2.825,5.201c-0.446,4.241,2.642,8.055,6.882,8.501
		c4.234,0.442,8.054-2.641,8.501-6.882l0,0c0.446-4.241-2.642-8.054-6.882-8.501C9.113,0.859,8.837,0.845,8.564,0.845z"/>
	<rect x="16.509" y="13.307" transform="matrix(0.677 -0.736 0.736 0.677 -7.1083 17.9796)" width="0.844" height="7.564"/>
	<path d="M3.365,7.443L2.586,7.119C4.619,2.225,8.98,2.385,9.018,2.385l-0.04,0.843C8.812,3.219,5.162,3.119,3.365,7.443z"/>
</g>
</svg>
