<?xml version="1.0" encoding="utf-8"?>
<!-- Generator: Adobe Illustrator 22.0.1, SVG Export Plug-In . SVG Version: 6.00 Build 0)  -->
<svg version="1.1" id="レイヤー_1" xmlns="http://www.w3.org/2000/svg" xmlns:xlink="http://www.w3.org/1999/xlink" x="0px"
	 y="0px" viewBox="0 0 20 15.441" style="enable-background:new 0 0 20 15.441;" xml:space="preserve">
<g>
	<g>
		<g>
			<g>
				<path d="M14.649,10.546l-0.778-0.259c0.389-1.165,0.845-2.207,2.495-3.146l0.253-0.143c1.762-0.995,2.803-1.721,2.392-3.407
					c-0.407-1.67-3.582-1.584-3.617-1.586L15.36,1.187c0.154-0.009,3.875-0.134,4.446,2.21c0.588,2.411-1.281,3.466-2.784,4.314
					l-0.25,0.142C15.26,8.713,14.949,9.645,14.649,10.546z"/>
			</g>
		</g>
		<g>
			<path d="M6.759,12.17c-0.663-1.433-1.153-2.809-0.438-5.137l0.112-0.363c0.664-2.134,1.29-4.149-0.828-5.526
				c-2.001-1.301-4.99,1.718-5.019,1.749L0,2.321c0.142-0.145,3.494-3.523,6.051-1.863C8.69,2.173,7.906,4.692,7.215,6.914
				l-0.112,0.36c-0.632,2.059-0.233,3.186,0.4,4.553L6.759,12.17z"/>
		</g>
	</g>
	<circle cx="13.383" cy="12.854" r="1.149"/>
	<circle cx="8.227" cy="14.288" r="1.149"/>
</g>
</svg>
