<?xml version="1.0" encoding="utf-8"?>
<!-- Generator: Adobe Illustrator 22.0.1, SVG Export Plug-In . SVG Version: 6.00 Build 0)  -->
<svg version="1.1" id="レイヤー_1" xmlns="http://www.w3.org/2000/svg" xmlns:xlink="http://www.w3.org/1999/xlink" x="0px"
	 y="0px" viewBox="0 0 20 20" style="enable-background:new 0 0 20 20;" xml:space="preserve">
<path d="M7.683,20l-2.758-5.041L0,12.324l1.589-1.589l3.886,0.777l2.51-2.51L0.891,4.299l1.987-1.987l8.45,3.348l4.165-4.165
	c2.403-2.403,4.027-1.2,4.095-1.149l0.069,0.07c0.053,0.068,1.256,1.691-1.148,4.095l-4.165,4.166l3.348,8.45l-1.987,1.987
	l-4.703-7.094l-2.51,2.51l0.777,3.886L7.683,20z M1.279,12.135l4.212,2.253l2.374,4.34l0.567-0.567l-0.777-3.886l3.468-3.468
	l4.703,7.095l0.962-0.962l-3.348-8.45l4.523-4.524c1.72-1.72,1.242-2.811,1.111-3.036c-0.225-0.129-1.321-0.606-3.037,1.11
	l-4.523,4.523l-8.45-3.348L2.103,4.177l7.094,4.703l-3.468,3.469l-3.886-0.777L1.279,12.135z"/>
</svg>
