<?xml version="1.0" encoding="utf-8"?>
<!-- Generator: Adobe Illustrator 22.0.1, SVG Export Plug-In . SVG Version: 6.00 Build 0)  -->
<svg version="1.1" id="レイヤー_1" xmlns="http://www.w3.org/2000/svg" xmlns:xlink="http://www.w3.org/1999/xlink" x="0px"
	 y="0px" viewBox="0 0 20 9.03" style="enable-background:new 0 0 20 9.03;" xml:space="preserve">
<style type="text/css">
	.st0{fill:#57B7D8;}
</style>
<g>
	<g>
		<path class="st0" d="M0.79,7.41C0.794,7.416,0.794,7.42,0.8,7.449c0.008,0.039,0.019,0.075,0.046,0.118
			C0.898,7.65,0.978,7.683,1.003,7.667c0.014-0.009,0.015-0.015,0.014-0.071c0-0.011,0.001-0.04,0.008-0.044
			c0.002-0.001,0.006,0.001,0.008,0.004C1.035,7.56,1.04,7.572,1.041,7.575c0.014,0.043,0.017,0.052,0.028,0.069
			c0.009,0.014,0.018,0.023,0.025,0.03c0.008,0.007,0.021,0.019,0.023,0.023c0.01,0.016-0.001,0.036-0.015,0.045
			C1.05,7.774,0.893,7.752,0.796,7.595C0.781,7.572,0.73,7.464,0.717,7.443C0.707,7.426,0.69,7.406,0.681,7.399
			C0.663,7.382,0.661,7.38,0.658,7.375C0.656,7.372,0.659,7.369,0.66,7.368C0.698,7.345,0.776,7.388,0.79,7.41z M1.202,7.18
			c0.063,0.008,0.13,0.047,0.171,0.111c0.01,0.016,0.032,0.055-0.007,0.08c-0.04,0.025-0.068-0.019-0.074-0.03
			C1.249,7.273,1.227,7.238,1.157,7.222C1.146,7.219,1.097,7.214,1.094,7.209C1.093,7.207,1.095,7.203,1.099,7.201
			C1.1,7.2,1.149,7.173,1.202,7.18z"/>
		<path class="st0" d="M2.238,6.638c0.029,0.005,0.035,0.02,0.037,0.026c0.006,0.015,0.006,0.03,0.004,0.048
			c-0.001,0.006-0.001,0.015,0,0.02c0.001,0.003,0.004,0.004,0.005,0.003c0.004-0.002,0.017-0.02,0.021-0.024
			c0.071-0.08,0.117-0.106,0.161-0.124c0.14-0.055,0.241,0.014,0.278,0.109C2.83,6.912,2.57,7.095,2.549,7.104
			c-0.002,0.001-0.004,0.001-0.004,0c-0.001-0.003,0.043-0.056,0.05-0.067C2.628,6.988,2.72,6.837,2.667,6.703
			c-0.04-0.103-0.129-0.11-0.191-0.086C2.378,6.656,2.296,6.75,2.277,6.802C2.271,6.82,2.271,6.838,2.295,6.899
			c0.008,0.02,0.053,0.134,0.076,0.18C2.375,7.086,2.39,7.114,2.392,7.119c0.011,0.029-0.006,0.062-0.019,0.068
			c-0.025,0.01-0.041-0.021-0.066-0.075c-0.009-0.018-0.048-0.102-0.07-0.093C2.233,7.021,2.23,7.048,2.229,7.065
			c-0.003,0.031-0.008,0.076-0.04,0.088C2.178,7.158,2.164,7.155,2.157,7.137C2.151,7.122,2.153,7.112,2.16,7.065
			c0.003-0.02,0.014-0.096,0.011-0.105C2.165,6.944,2.133,6.918,2.109,6.905C2.066,6.88,2.062,6.877,2.055,6.861
			C2.043,6.831,2.066,6.817,2.101,6.798C2.115,6.789,2.12,6.786,2.159,6.706C2.161,6.7,2.174,6.679,2.174,6.676
			c0.001-0.011-0.011-0.052-0.022-0.08C2.12,6.516,2.088,6.494,2.066,6.483C2.044,6.471,2.041,6.47,2.04,6.467
			c-0.003-0.007,0.017-0.02,0.026-0.024c0.024-0.01,0.1,0.003,0.112,0.033C2.183,6.49,2.193,6.551,2.196,6.563
			C2.2,6.578,2.208,6.607,2.212,6.617C2.219,6.634,2.22,6.635,2.238,6.638z M2.168,6.789C2.165,6.805,2.162,6.826,2.142,6.836
			C2.114,6.849,2.105,6.853,2.11,6.865c0.005,0.013,0.06,0.057,0.07,0.054C2.185,6.916,2.186,6.911,2.19,6.892
			C2.214,6.789,2.213,6.787,2.2,6.755C2.198,6.747,2.196,6.743,2.192,6.743C2.186,6.745,2.173,6.757,2.168,6.789z M2.239,6.977
			c0.005,0.012,0.032,0.028,0.04,0.025C2.29,6.998,2.27,6.949,2.254,6.908C2.253,6.904,2.25,6.903,2.248,6.904
			C2.24,6.907,2.235,6.966,2.239,6.977z"/>
		<path class="st0" d="M3.442,6.216c0.04-0.011,0.053-0.018,0.171-0.089C3.691,6.082,3.888,5.964,3.95,5.948
			c0.033-0.009,0.078-0.007,0.087,0.025c0.006,0.024-0.015,0.041-0.028,0.044C3.996,6.02,3.94,6.024,3.929,6.027
			C3.811,6.059,3.707,6.203,3.771,6.444C3.813,6.601,3.874,6.596,3.93,6.581c0.014-0.004,0.08-0.027,0.087-0.029
			c0.029-0.008,0.05,0,0.056,0.022c0.013,0.049-0.09,0.077-0.095,0.078C3.786,6.703,3.745,6.547,3.733,6.503
			C3.722,6.462,3.67,6.264,3.774,6.108c0.003-0.004,0.018-0.024,0.017-0.026c0-0.002-0.004-0.001-0.006,0
			C3.731,6.096,3.559,6.23,3.534,6.255C3.523,6.266,3.515,6.273,3.504,6.276c-0.047,0.012-0.107-0.038-0.1-0.055
			C3.407,6.216,3.438,6.217,3.442,6.216z"/>
		<path class="st0" d="M4.903,5.775C4.82,5.79,4.793,5.797,4.784,5.8C4.781,5.8,4.767,5.805,4.764,5.805
			C4.76,5.806,4.758,5.804,4.754,5.801L4.732,5.782C4.73,5.78,4.727,5.779,4.726,5.777c0-0.001,0.002-0.002,0.003-0.003
			C4.736,5.773,4.766,5.77,4.772,5.769c0.047-0.006,0.086-0.012,0.131-0.02l0.061-0.011c0.021-0.004,0.03-0.009,0.025-0.036
			c-0.005-0.029-0.01-0.043-0.014-0.057c-0.002-0.004-0.01-0.02-0.01-0.024c0-0.003,0.001-0.009,0.01-0.011
			C4.978,5.61,5.068,5.607,5.071,5.622C5.071,5.626,5.07,5.629,5.057,5.645C5.05,5.653,5.049,5.657,5.054,5.681
			C5.061,5.72,5.069,5.719,5.097,5.714L5.23,5.69c0.028-0.005,0.025-0.022,0.023-0.037C5.251,5.642,5.246,5.61,5.241,5.596
			C5.239,5.592,5.229,5.575,5.229,5.571C5.228,5.566,5.231,5.564,5.237,5.563C5.242,5.562,5.337,5.56,5.34,5.58
			c0.001,0.009-0.003,0.012-0.014,0.023c-0.011,0.01-0.005,0.04-0.005,0.045c0.004,0.024,0.025,0.02,0.034,0.018l0.052-0.01
			C5.449,5.65,5.454,5.649,5.465,5.63C5.486,5.594,5.488,5.59,5.497,5.588c0.006-0.001,0.098,0.035,0.1,0.047
			C5.599,5.648,5.58,5.652,5.549,5.657l-0.19,0.035C5.347,5.694,5.329,5.7,5.333,5.725c0.001,0.008,0.009,0.039,0.01,0.044
			c0.003,0.014,0.009,0.049-0.031,0.056C5.28,5.831,5.278,5.819,5.276,5.811C5.275,5.805,5.271,5.753,5.269,5.743
			C5.265,5.722,5.261,5.71,5.235,5.714L5.103,5.739c-0.02,0.004-0.035,0.007-0.03,0.035c0.002,0.01,0.01,0.048,0.01,0.056
			c0.002,0.027-0.025,0.038-0.034,0.04C5.023,5.874,5.02,5.857,5.017,5.843C5.003,5.765,5.002,5.757,4.97,5.763L4.903,5.775z
			 M4.928,6.145c-0.04,0.064-0.092,0.134-0.1,0.135c-0.002,0-0.003-0.001-0.004-0.003C4.824,6.274,4.856,6.211,4.861,6.2
			c0.015-0.034,0.112-0.247,0.101-0.309C4.959,5.878,4.959,5.875,4.965,5.874c0.004-0.001,0.096,0.008,0.1,0.031
			c0.002,0.011-0.007,0.017-0.018,0.024c-0.01,0.006-0.031,0.057-0.03,0.063C5.018,5.998,5.02,5.999,5.045,6.016
			c0.008,0.006,0.008,0.006,0.009,0.009c0.001,0.007-0.018,0.031-0.019,0.037c0,0.009,0.027,0.161,0.031,0.18
			c0.005,0.029,0.035,0.198,0.036,0.212c0,0.016-0.022,0.032-0.041,0.036C5.045,6.493,5.037,6.488,5.034,6.473
			c-0.007-0.038-0.032-0.205-0.039-0.24C4.988,6.196,4.978,6.146,4.971,6.107c-0.002-0.013-0.003-0.017-0.01-0.014
			C4.956,6.095,4.934,6.137,4.928,6.145z M5.304,6.059c0.002,0.01,0.007,0.024,0.018,0.022c0.018-0.003,0.157-0.156,0.16-0.214
			c0-0.008,0.002-0.009,0.005-0.01c0.006-0.001,0.094,0.055,0.097,0.068C5.586,5.94,5.581,5.941,5.54,5.956
			C5.526,5.961,5.508,5.98,5.496,5.989C5.47,6.009,5.333,6.107,5.33,6.11C5.317,6.124,5.32,6.141,5.328,6.189
			c0.027,0.146,0.027,0.147,0.144,0.126c0.147-0.027,0.148-0.042,0.161-0.16c0-0.003,0.003-0.035,0.006-0.036
			c0.003-0.001,0.005,0.005,0.009,0.019c0.005,0.015,0.027,0.087,0.034,0.096c0.005,0.006,0.03,0.027,0.032,0.034
			C5.72,6.301,5.658,6.346,5.516,6.372C5.306,6.41,5.299,6.374,5.28,6.277C5.27,6.222,5.224,5.979,5.213,5.93
			c-0.008-0.037-0.02-0.06-0.024-0.067C5.188,5.861,5.184,5.857,5.184,5.855C5.183,5.85,5.188,5.848,5.19,5.847
			c0.003,0,0.088,0.004,0.091,0.005c0.004,0.001,0.01,0.003,0.011,0.009c0.001,0.008-0.001,0.01-0.012,0.023
			C5.278,5.889,5.276,5.894,5.277,5.9c0.001,0.016,0.014,0.087,0.017,0.107L5.304,6.059z"/>
		<path class="st0" d="M6.854,5.713C6.849,5.713,6.842,5.714,6.842,5.722c0.003,0.021,0.169,0.101,0.264,0.112
			c0.005,0,0.02,0.001,0.02,0.004c0,0.002-0.007,0.006-0.011,0.007c-0.024,0.013-0.051,0.031-0.064,0.05
			C7.043,5.909,7.042,5.91,7.036,5.91C7.02,5.912,6.884,5.845,6.786,5.743C6.769,5.726,6.76,5.724,6.732,5.727L6.595,5.744
			c-0.028,0.003-0.03,0.008-0.055,0.05C6.45,5.945,6.273,6.05,6.24,6.054c-0.001,0-0.002-0.001-0.002-0.002
			C6.238,6.047,6.265,6.027,6.27,6.024c0.123-0.086,0.22-0.235,0.218-0.255c-0.001-0.012-0.014-0.011-0.021-0.01L6.406,5.766
			C6.381,5.769,6.315,5.777,6.285,5.784c-0.003,0-0.017,0.004-0.021,0.004c-0.003,0-0.005-0.001-0.008-0.005l-0.022-0.02
			C6.231,5.761,6.23,5.759,6.229,5.757c0-0.002,0.002-0.002,0.004-0.002c0.006-0.001,0.035-0.001,0.042-0.002
			c0.028-0.001,0.078-0.005,0.133-0.012l0.073-0.009C6.497,5.73,6.507,5.729,6.519,5.704c0.008-0.016,0.027-0.082,0.025-0.097
			C6.543,5.593,6.531,5.595,6.521,5.596L6.457,5.603C6.434,5.606,6.37,5.614,6.337,5.621c-0.003,0-0.017,0.004-0.02,0.004
			c-0.004,0-0.006-0.001-0.009-0.005L6.287,5.6C6.284,5.598,6.281,5.596,6.281,5.594c0-0.002,0.002-0.002,0.004-0.002
			C6.29,5.591,6.321,5.591,6.327,5.59c0.028-0.002,0.077-0.005,0.132-0.012L6.522,5.57c0.019-0.002,0.03-0.004,0.034-0.024
			c0.005-0.024,0.007-0.085,0.002-0.119C6.557,5.417,6.555,5.407,6.552,5.399C6.55,5.395,6.545,5.386,6.545,5.383
			C6.544,5.375,6.55,5.372,6.557,5.372C6.574,5.37,6.616,5.374,6.632,5.375C6.64,5.376,6.656,5.378,6.657,5.39
			c0,0.002,0.001,0.005-0.001,0.007C6.655,5.4,6.645,5.409,6.643,5.412c-0.01,0.014-0.016,0.125-0.016,0.129
			c0.002,0.014,0.01,0.015,0.024,0.014l0.165-0.02c0.022-0.003,0.039-0.005,0.046-0.009C6.871,5.521,6.898,5.473,6.91,5.472
			c0.006-0.001,0.095,0.04,0.097,0.053c0.002,0.013-0.018,0.016-0.049,0.02l-0.253,0.03C6.698,5.575,6.688,5.576,6.689,5.586
			c0.002,0.013,0.071,0.077,0.085,0.089c0.023,0.02,0.033,0.018,0.055,0.016L6.88,5.685c0.043-0.005,0.048-0.006,0.06-0.024
			c0.029-0.048,0.033-0.054,0.042-0.055c0.017-0.002,0.105,0.049,0.107,0.065c0.002,0.013-0.018,0.016-0.049,0.02L6.854,5.713z
			 M6.479,5.512C6.481,5.534,6.472,5.556,6.45,5.559C6.427,5.561,6.422,5.551,6.399,5.499C6.386,5.469,6.376,5.452,6.35,5.433
			C6.345,5.43,6.335,5.424,6.335,5.423c0-0.003,0.004-0.003,0.006-0.004C6.356,5.418,6.383,5.423,6.4,5.43
			C6.419,5.439,6.473,5.466,6.479,5.512z M6.729,5.842C6.743,5.84,6.748,5.839,6.758,5.824C6.766,5.812,6.77,5.809,6.776,5.808
			c0.008-0.001,0.073,0.025,0.075,0.041C6.851,5.854,6.85,5.857,6.838,5.87C6.829,5.879,6.827,5.885,6.829,5.9
			c0.001,0.011,0.009,0.058,0.01,0.069c0.003,0.023,0.006,0.05-0.031,0.054c-0.02,0.002-0.023-0.002-0.029-0.014
			C6.773,5.998,6.762,5.996,6.748,5.998L6.592,6.017C6.561,6.021,6.562,6.028,6.569,6.088C6.575,6.14,6.576,6.15,6.715,6.133
			C6.749,6.129,6.842,6.117,6.86,6.099c0.014-0.014,0.02-0.064,0.026-0.118c0-0.007,0.003-0.031,0.007-0.031
			c0.004,0,0.006,0.006,0.006,0.01C6.9,5.965,6.921,6.037,6.942,6.062c0.005,0.005,0.031,0.025,0.032,0.032
			c0.002,0.018-0.019,0.042-0.04,0.056C6.892,6.178,6.777,6.191,6.719,6.198C6.577,6.215,6.546,6.204,6.524,6.164
			c-0.01-0.017-0.011-0.026-0.021-0.109C6.501,6.036,6.494,6.012,6.49,6.002C6.488,5.997,6.484,5.991,6.484,5.988
			C6.483,5.982,6.492,5.98,6.494,5.98c0.013-0.002,0.02,0.002,0.056,0.01c0.017,0.004,0.022,0.003,0.03,0.002l0.158-0.019
			c0.035-0.004,0.034-0.011,0.026-0.076c-0.003-0.029-0.01-0.032-0.036-0.029L6.668,5.875c-0.022,0.003-0.087,0.01-0.121,0.017
			c-0.003,0-0.017,0.004-0.02,0.004c-0.003,0-0.005-0.001-0.009-0.006l-0.021-0.02C6.495,5.87,6.493,5.867,6.493,5.866
			c0-0.002,0.002-0.002,0.003-0.002c0.006-0.001,0.036-0.001,0.043-0.002C6.566,5.859,6.616,5.855,6.67,5.849L6.729,5.842z
			 M6.717,5.704c0.009-0.001,0.019-0.002,0.018-0.013c-0.001-0.005-0.04-0.067-0.048-0.08c-0.016-0.03-0.018-0.033-0.04-0.03
			C6.626,5.583,6.619,5.584,6.613,5.608C6.602,5.653,6.6,5.658,6.589,5.691C6.586,5.696,6.584,5.703,6.585,5.709
			C6.586,5.72,6.597,5.718,6.603,5.718L6.717,5.704z M6.851,5.412c0.001,0.008-0.004,0.01-0.022,0.019
			C6.824,5.434,6.748,5.504,6.717,5.526C6.71,5.531,6.703,5.535,6.703,5.532c0-0.002,0.041-0.08,0.06-0.128
			C6.767,5.395,6.77,5.383,6.769,5.378C6.768,5.37,6.768,5.368,6.772,5.367C6.781,5.366,6.8,5.375,6.814,5.382
			C6.842,5.396,6.85,5.404,6.851,5.412z"/>
		<path class="st0" d="M7.826,5.408C7.803,5.409,7.801,5.41,7.797,5.443c-0.005,0.04-0.029,0.079-0.066,0.081
			c-0.022,0.002-0.036-0.01-0.036-0.023c-0.001-0.011,0.026-0.056,0.03-0.066c0.01-0.023,0.014-0.063,0.013-0.089
			c0-0.004,0-0.016,0.005-0.017c0.006,0,0.021,0.019,0.037,0.039c0.011,0.015,0.02,0.016,0.036,0.015L8.04,5.368
			c0.026-0.002,0.025-0.02,0.021-0.066C8.06,5.282,8.056,5.256,8.052,5.246c-0.001-0.003-0.01-0.014-0.01-0.017
			c0-0.002,0-0.008,0.012-0.009c0.019-0.001,0.097,0.008,0.098,0.023c0,0.005-0.017,0.025-0.018,0.03
			C8.128,5.29,8.13,5.322,8.131,5.333c0.001,0.009,0.002,0.028,0.026,0.026l0.209-0.015C8.39,5.343,8.397,5.332,8.404,5.314
			C8.409,5.302,8.414,5.29,8.42,5.29c0.008-0.001,0.074,0.038,0.09,0.047c0.025,0.015,0.026,0.022,0.026,0.027
			C8.537,5.383,8.529,5.383,8.449,5.39C8.425,5.392,8.403,5.408,8.393,5.414C8.389,5.418,8.36,5.439,8.357,5.439
			c-0.003,0-0.004-0.003-0.004-0.005c0-0.004,0.028-0.048,0.027-0.059c0-0.007-0.007-0.006-0.019-0.005L8.237,5.379
			C8.212,5.381,8.213,5.401,8.214,5.411C8.216,5.438,8.223,5.52,8.23,5.544C8.239,5.569,8.253,5.57,8.337,5.565
			c0.093-0.007,0.103-0.007,0.126-0.05c0.004-0.009,0.025-0.057,0.03-0.057c0.006,0,0.006,0.003,0.007,0.029
			c0.001,0.019,0.002,0.035,0.02,0.046c0.014,0.01,0.015,0.011,0.016,0.017c0.001,0.02-0.023,0.048-0.054,0.059
			C8.45,5.621,8.41,5.623,8.344,5.628c-0.148,0.01-0.17,0.012-0.176-0.076C8.165,5.517,8.16,5.44,8.156,5.408
			C8.154,5.394,8.144,5.385,8.129,5.386L8.039,5.393C8.023,5.394,8.016,5.394,8.017,5.4c0,0.003,0.016,0.011,0.025,0.016
			c0.022,0.012,0.022,0.015,0.023,0.02c0.001,0.01-0.007,0.014-0.027,0.025C8.03,5.465,7.99,5.532,7.98,5.545
			c-0.053,0.073-0.105,0.11-0.166,0.141C7.769,5.71,7.736,5.721,7.723,5.722c-0.001,0-0.005,0-0.005-0.004
			c0-0.002,0.011-0.008,0.014-0.01c0.132-0.067,0.236-0.223,0.231-0.291C7.962,5.403,7.956,5.399,7.933,5.4L7.826,5.408z
			 M8.314,5.738c0.01-0.001,0.021-0.001,0.04-0.027c0.023-0.033,0.029-0.035,0.037-0.036c0.014-0.001,0.093,0.048,0.094,0.062
			c0.001,0.01-0.008,0.014-0.024,0.015L8.194,5.771C8.169,5.773,8.17,5.793,8.173,5.833C8.174,5.849,8.184,5.991,8.186,6
			C8.189,6.019,8.21,6.018,8.211,6.018l0.208-0.015C8.44,6.002,8.447,5.992,8.457,5.972c0.022-0.04,0.025-0.044,0.034-0.045
			c0.012-0.001,0.093,0.064,0.094,0.079c0.001,0.011-0.009,0.012-0.023,0.013L7.878,6.066C7.848,6.069,7.783,6.073,7.75,6.078
			c-0.004,0-0.017,0.003-0.02,0.003c-0.004,0-0.006-0.001-0.009-0.005L7.7,6.056C7.696,6.052,7.695,6.051,7.695,6.05
			c0-0.002,0.001-0.003,0.004-0.003c0.005,0,0.03,0.001,0.035,0c0.029,0,0.104-0.003,0.14-0.006L8.09,6.026
			c0.025-0.002,0.024-0.023,0.023-0.033C8.112,5.967,8.105,5.849,8.104,5.825C8.102,5.797,8.1,5.778,8.075,5.78L7.944,5.789
			C7.92,5.79,7.857,5.796,7.823,5.8c-0.004,0-0.018,0.004-0.021,0.004C7.8,5.805,7.795,5.8,7.794,5.799L7.773,5.778
			C7.769,5.774,7.769,5.773,7.769,5.772c0-0.002,0.001-0.003,0.004-0.003c0.007,0,0.036,0.001,0.043,0.001
			c0.042-0.001,0.081-0.003,0.132-0.006L8.314,5.738z"/>
		<path class="st0" d="M9.277,5.862c0.014,0.031,0.04,0.094,0.04,0.122c0.001,0.023-0.019,0.05-0.048,0.051
			C9.228,6.036,9.226,6.011,9.219,5.919C9.216,5.882,9.21,5.799,9.128,5.771C9.124,5.769,9.111,5.765,9.111,5.763
			c0-0.004,0.002-0.006,0.006-0.006c0.006,0,0.033,0.002,0.039,0.002c0.033-0.001,0.041-0.004,0.103-0.158
			C9.284,5.54,9.315,5.438,9.338,5.377c0.003-0.006,0.004-0.012,0.008-0.012c0.001,0,0.004,0.001,0.004,0.006
			c0.001,0.02-0.049,0.228-0.07,0.29C9.269,5.693,9.251,5.749,9.251,5.776C9.252,5.798,9.255,5.814,9.277,5.862z M9.222,5.538
			c-0.014,0-0.023-0.004-0.039-0.037C9.172,5.478,9.151,5.449,9.132,5.433C9.129,5.43,9.111,5.417,9.111,5.414
			c0-0.004,0.012-0.004,0.015-0.004c0.027-0.001,0.116,0.013,0.129,0.084C9.259,5.514,9.245,5.537,9.222,5.538z M9.291,5.325
			C9.272,5.326,9.27,5.323,9.242,5.271C9.223,5.238,9.202,5.214,9.177,5.195C9.171,5.191,9.17,5.189,9.17,5.188
			c0-0.004,0.009-0.004,0.012-0.004c0.027-0.001,0.139,0.028,0.141,0.094C9.324,5.303,9.31,5.324,9.291,5.325z M9.351,5.473
			C9.348,5.469,9.346,5.468,9.346,5.466c0-0.002,0.002-0.002,0.004-0.002c0.007,0,0.037,0.002,0.043,0.002
			c0.015,0,0.087,0.001,0.101,0.001c0.025-0.001,0.03-0.013,0.03-0.028c0-0.011-0.001-0.089-0.001-0.097
			c-0.001-0.027-0.014-0.031-0.03-0.03c-0.013,0-0.081,0.007-0.09,0.008c-0.003,0-0.006-0.003-0.009-0.006L9.375,5.292
			C9.371,5.287,9.371,5.286,9.371,5.285c0-0.002,0.001-0.002,0.003-0.002c0.019-0.001,0.102,0.003,0.118,0.002
			c0.024-0.001,0.027-0.013,0.026-0.042C9.517,5.225,9.514,5.191,9.511,5.182C9.51,5.178,9.501,5.166,9.5,5.162
			c0-0.007,0.007-0.009,0.011-0.009c0.01,0,0.066,0.011,0.076,0.014C9.599,5.17,9.614,5.173,9.614,5.186
			c0,0.009-0.004,0.012-0.021,0.021c-0.01,0.005-0.01,0.028-0.01,0.036c0.001,0.021,0.003,0.041,0.026,0.04L9.679,5.28
			C9.704,5.28,9.704,5.259,9.703,5.249c0-0.009-0.002-0.033-0.003-0.051c0-0.006-0.005-0.032-0.005-0.037
			c0-0.007,0.003-0.012,0.01-0.012c0.003,0,0.062,0.012,0.08,0.018c0.01,0.004,0.018,0.007,0.018,0.017
			c0,0.008-0.003,0.01-0.027,0.03C9.772,5.217,9.769,5.221,9.77,5.245c0,0.013,0.001,0.033,0.026,0.032l0.04-0.001
			c0.012,0,0.017-0.01,0.022-0.02C9.875,5.22,9.876,5.216,9.881,5.216c0.012,0,0.074,0.048,0.075,0.066
			c0,0.014-0.016,0.015-0.024,0.015L9.797,5.302C9.772,5.303,9.772,5.323,9.773,5.334c0,0.016,0.002,0.094,0.003,0.1
			C9.777,5.456,9.8,5.457,9.801,5.456l0.083-0.003c0.012,0,0.015-0.011,0.029-0.038c0.007-0.015,0.01-0.02,0.019-0.02
			c0.012,0,0.078,0.048,0.078,0.066c0,0.011-0.015,0.013-0.025,0.013L9.797,5.482c-0.003,0-0.022,0.001-0.022,0.013
			C9.775,5.52,9.877,5.636,10.019,5.69c0.022,0.008,0.024,0.01,0.025,0.015c0,0.004-0.023,0.011-0.035,0.018
			c-0.021,0.01-0.04,0.023-0.046,0.033C9.957,5.762,9.955,5.764,9.953,5.764c-0.009,0-0.108-0.07-0.188-0.234
			C9.751,5.5,9.742,5.483,9.712,5.484L9.564,5.489c-0.002,0-0.005,0-0.005,0.003c0,0.003,0.027,0.025,0.027,0.032
			c0,0.006-0.027,0.015-0.029,0.019c-0.01,0.013-0.023,0.035-0.032,0.047c-0.022,0.03-0.076,0.1-0.152,0.151
			c-0.008,0.005-0.029,0.019-0.036,0.02c-0.001,0-0.003,0-0.003-0.003c0-0.005,0.002-0.007,0.021-0.025
			c0.037-0.037,0.097-0.12,0.121-0.17C9.477,5.559,9.497,5.52,9.496,5.505c0-0.014-0.012-0.014-0.021-0.014
			c-0.015,0-0.083,0.007-0.097,0.008c-0.003,0-0.005-0.002-0.009-0.006L9.351,5.473z M9.6,5.789C9.574,5.79,9.565,5.791,9.566,5.829
			c0.002,0.072,0.002,0.079,0.008,0.092C9.585,5.947,9.619,5.948,9.67,5.946c0.063-0.002,0.165-0.005,0.185-0.03
			C9.87,5.897,9.884,5.853,9.893,5.823c0.003-0.01,0.006-0.019,0.009-0.019c0.005,0,0.005,0.004,0.007,0.021
			c0.001,0.006,0.006,0.052,0.021,0.067c0.015,0.015,0.017,0.017,0.017,0.025c0,0.013-0.019,0.054-0.065,0.07
			c-0.05,0.017-0.148,0.02-0.173,0.021c-0.201,0.006-0.201-0.003-0.206-0.15C9.503,5.801,9.502,5.771,9.497,5.753
			C9.496,5.748,9.489,5.731,9.489,5.727c0-0.002,0.001-0.005,0.006-0.005C9.52,5.721,9.567,5.748,9.571,5.751
			c0.02,0.013,0.024,0.014,0.052,0.013l0.1-0.003C9.75,5.76,9.75,5.748,9.748,5.696c-0.001-0.03-0.001-0.048-0.027-0.048
			L9.688,5.649C9.625,5.651,9.594,5.653,9.567,5.656c-0.004,0-0.017,0.003-0.02,0.003c-0.004,0-0.006-0.002-0.009-0.006L9.519,5.631
			C9.516,5.629,9.514,5.627,9.514,5.625c0-0.001,0.002-0.002,0.004-0.002c0.007,0,0.036,0.002,0.043,0.002
			c0.047,0.001,0.087,0.001,0.132,0L9.73,5.623c0.011,0,0.015,0,0.024-0.01c0.007-0.009,0.009-0.011,0.015-0.011
			c0.009,0,0.062,0.04,0.063,0.052c0,0.008-0.004,0.012-0.021,0.025C9.806,5.683,9.807,5.692,9.807,5.696
			c0,0.008,0.006,0.074,0.007,0.089C9.815,5.83,9.773,5.832,9.77,5.832c-0.017,0.001-0.019-0.01-0.02-0.024
			c0-0.01-0.006-0.023-0.027-0.022L9.6,5.789z M9.607,5.308c-0.014,0-0.022,0.011-0.022,0.026c0,0.011,0.002,0.088,0.002,0.102
			c0,0.008,0.001,0.027,0.026,0.026L9.686,5.46c0.026-0.001,0.026-0.008,0.022-0.126c0-0.008-0.001-0.029-0.024-0.028L9.607,5.308z"
			/>
		<path class="st0" d="M10.677,5.45c0-0.004,0.004-0.008,0.009-0.008c0.003,0,0.053,0.014,0.064,0.014
			c0.028,0,0.16-0.028,0.162-0.029c0.016-0.012,0.018-0.109,0.018-0.114c0-0.025-0.002-0.054-0.024-0.082
			c-0.014-0.017-0.016-0.019-0.016-0.022c0-0.007,0.012-0.008,0.015-0.008c0.065,0,0.102,0.037,0.102,0.062
			c0,0.002-0.037,0.125-0.037,0.143c0,0.006,0.004,0.009,0.011,0.009c0.005,0,0.049-0.005,0.057-0.005
			c0.072,0,0.128,0.035,0.128,0.124c0,0.076-0.028,0.242-0.084,0.31c-0.027,0.032-0.066,0.059-0.099,0.059
			c-0.037,0-0.046-0.036-0.057-0.067c-0.002-0.005-0.012-0.03-0.012-0.032c0-0.003,0.002-0.005,0.005-0.005
			c0.004,0,0.021,0.006,0.024,0.007c0.019,0.004,0.039,0.007,0.049,0.007c0.028,0,0.064-0.013,0.092-0.118
			c0.011-0.039,0.03-0.117,0.03-0.168c0-0.068-0.038-0.073-0.066-0.073c-0.031,0-0.086,0.014-0.093,0.023
			c-0.004,0.005-0.005,0.009-0.015,0.041c-0.039,0.131-0.133,0.369-0.212,0.369c-0.021,0-0.031-0.014-0.031-0.031
			c0-0.02,0.007-0.028,0.065-0.092c0.026-0.029,0.067-0.073,0.119-0.218c0.004-0.01,0.014-0.039,0.014-0.045
			c0-0.003-0.001-0.008-0.007-0.008c-0.021,0-0.111,0.038-0.131,0.038C10.721,5.532,10.677,5.471,10.677,5.45z M11.351,5.653
			c-0.01,0-0.054-0.026-0.066-0.029c-0.005-0.002-0.031-0.004-0.031-0.007c0-0.006,0.032-0.022,0.038-0.027
			c0.036-0.027,0.04-0.03,0.04-0.056c0-0.016-0.007-0.079-0.078-0.111c-0.008-0.004-0.023-0.011-0.023-0.015
			c0-0.006,0.004-0.006,0.007-0.006c0.124,0,0.169,0.122,0.169,0.171C11.406,5.585,11.391,5.653,11.351,5.653z"/>
		<path class="st0" d="M12.561,5.305c0,0.019-0.016,0.046-0.05,0.046c-0.009,0-0.014-0.001-0.057-0.017
			c-0.015-0.006-0.031-0.01-0.045-0.01c-0.04-0.001-0.069,0.026-0.07,0.063c0,0.009,0.006,0.05,0.006,0.059
			c0,0.009-0.011,0.066-0.013,0.079c-0.005,0.036-0.014,0.118-0.015,0.142c0,0.015,0,0.044,0.024,0.045
			c0.018,0,0.047-0.017,0.056-0.022c0.06-0.038,0.097-0.06,0.158-0.059c0.103,0.002,0.176,0.075,0.174,0.155
			c-0.002,0.118-0.157,0.194-0.297,0.191c-0.013,0-0.026,0-0.026-0.008c0-0.005,0.021-0.009,0.028-0.011
			c0.121-0.025,0.213-0.1,0.215-0.191c0.002-0.101-0.086-0.109-0.105-0.109c-0.034-0.001-0.083,0.009-0.127,0.07
			c-0.045,0.062-0.056,0.078-0.089,0.078c-0.041-0.001-0.073-0.048-0.071-0.122c0.001-0.041,0.027-0.218,0.03-0.254
			c0.003-0.034,0.008-0.083,0.09-0.114c0.054-0.021,0.078-0.031,0.078-0.059c0-0.018-0.006-0.029-0.016-0.044
			c-0.002-0.004-0.005-0.01-0.002-0.013C12.445,5.193,12.561,5.251,12.561,5.305z"/>
		<path class="st0" d="M13.913,5.319c0,0.003,0.002,0.007,0.002,0.011c0.004,0.031,0.011,0.062,0.011,0.104
			c0.001,0.065-0.012,0.155-0.095,0.284c-0.076,0.119-0.125,0.143-0.163,0.143c-0.064,0.001-0.122-0.098-0.124-0.216
			c-0.001-0.051,0.008-0.149,0.104-0.248c0.121-0.127,0.25-0.129,0.306-0.13c0.088-0.001,0.129,0.016,0.156,0.029
			c0.105,0.05,0.17,0.152,0.172,0.279c0.002,0.126-0.069,0.281-0.239,0.343c-0.082,0.03-0.145,0.038-0.16,0.038
			c-0.004,0-0.01-0.001-0.01-0.007c0-0.003,0.002-0.004,0.026-0.014c0.1-0.041,0.308-0.127,0.305-0.368
			c0-0.038-0.008-0.268-0.271-0.264C13.914,5.305,13.913,5.313,13.913,5.319z M13.603,5.62c0.001,0.063,0.027,0.148,0.086,0.148
			c0.028,0,0.051-0.012,0.116-0.114c0.05-0.079,0.092-0.187,0.091-0.282c-0.001-0.058-0.005-0.063-0.017-0.063
			C13.787,5.31,13.601,5.437,13.603,5.62z"/>
		<path class="st0" d="M15.333,5.396c0.001,0.032-0.071,0.064-0.094,0.075c-0.013,0.005-0.014,0.009-0.015,0.043
			c-0.001,0.021,0.002,0.1,0.003,0.104c0,0.006,0.001,0.017,0.009,0.017c0.003,0,0.081-0.036,0.096-0.043
			c0.094-0.04,0.138-0.045,0.163-0.046c0.07-0.003,0.151,0.049,0.155,0.139c0.006,0.128-0.126,0.191-0.206,0.195
			c-0.055,0.002-0.101-0.024-0.103-0.074c-0.002-0.045,0.036-0.078,0.045-0.078c0.003,0,0.005,0.003,0.005,0.005
			c0,0.003-0.002,0.005-0.004,0.008c-0.003,0.004-0.008,0.012-0.008,0.026c0.002,0.046,0.055,0.044,0.065,0.044
			c0.064-0.003,0.143-0.049,0.14-0.126c-0.003-0.069-0.056-0.104-0.097-0.102c-0.027,0.001-0.086,0.016-0.197,0.081
			c-0.053,0.031-0.059,0.034-0.058,0.051c0,0.011,0.005,0.054,0.006,0.064c0.002,0.044-0.01,0.109-0.045,0.11
			c-0.026,0.001-0.038-0.019-0.046-0.034c-0.034-0.059-0.038-0.058-0.051-0.058c-0.009,0-0.018,0.005-0.024,0.007
			c-0.006,0.003-0.029,0.021-0.036,0.021c-0.011,0-0.061-0.026-0.063-0.058c-0.001-0.017,0.009-0.038,0.026-0.039
			c0.006,0,0.034,0.003,0.04,0.003c0.026-0.001,0.043-0.007,0.099-0.037c0.048-0.026,0.054-0.029,0.053-0.056
			c-0.001-0.022-0.006-0.104-0.007-0.121c0-0.007-0.004-0.021-0.014-0.021c-0.012,0-0.038,0.008-0.044,0.011
			c-0.049,0.019-0.053,0.021-0.068,0.021c-0.033,0.001-0.072-0.064-0.073-0.07c0-0.005,0.004-0.007,0.007-0.007
			c0.003,0,0.015,0.003,0.018,0.003c0.018,0.002,0.032,0.003,0.045,0.003c0.035-0.001,0.116-0.028,0.121-0.034
			c0.005-0.007,0.006-0.095,0.005-0.106c-0.001-0.03-0.007-0.049-0.035-0.076c-0.002-0.002-0.014-0.013-0.014-0.015
			c0-0.009,0.015-0.011,0.021-0.011c0.065-0.003,0.102,0.043,0.102,0.061c0,0.009-0.017,0.044-0.018,0.051
			c-0.001,0.007-0.008,0.046-0.007,0.063c0,0.004,0.002,0.011,0.008,0.01c0.007,0,0.033-0.012,0.033-0.026
			c0-0.002-0.005-0.011-0.005-0.013c0-0.001,0.002-0.003,0.004-0.004C15.285,5.355,15.332,5.366,15.333,5.396z M15.129,5.776
			c0.001,0.014,0.028,0.044,0.043,0.044c0.014-0.001,0.026-0.028,0.024-0.076c0-0.004-0.001-0.014-0.004-0.015
			C15.189,5.728,15.128,5.762,15.129,5.776z M15.751,5.448c0.001,0.02-0.01,0.047-0.03,0.048c-0.006,0-0.028-0.001-0.033-0.001
			c-0.005,0.001-0.025,0.008-0.029,0.008c-0.002,0-0.005-0.001-0.005-0.005c0-0.002,0.003-0.007,0.003-0.008
			c0.002-0.006,0.003-0.011,0.003-0.018c-0.002-0.039-0.051-0.05-0.083-0.049c-0.015,0.001-0.024,0.005-0.037,0.011
			c-0.004,0.002-0.007,0.003-0.01,0.003c-0.003,0-0.004-0.001-0.004-0.004c0-0.007,0.038-0.063,0.102-0.065
			C15.702,5.367,15.749,5.403,15.751,5.448z"/>
		<path class="st0" d="M16.646,5.494c-0.018,0.001-0.026,0.008-0.026,0.022c-0.001,0.012-0.004,0.084-0.004,0.093
			c0.001,0.012,0.005,0.013,0.026,0.025c0.097,0.054,0.153,0.114,0.157,0.165c0.002,0.022-0.013,0.053-0.036,0.055
			c-0.019,0.001-0.022-0.005-0.044-0.066c-0.025-0.07-0.088-0.148-0.103-0.147c-0.005,0-0.009,0.014-0.015,0.037
			c-0.045,0.173-0.194,0.243-0.206,0.244c-0.005,0-0.008-0.002-0.008-0.006c0-0.005,0-0.005,0.018-0.02
			c0.139-0.112,0.159-0.277,0.151-0.372c-0.002-0.024-0.013-0.023-0.031-0.022c-0.031,0.002-0.068,0.005-0.103,0.01
			c-0.006,0-0.034,0.006-0.04,0.007c-0.004,0-0.005-0.002-0.009-0.006l-0.021-0.021c-0.002-0.002-0.004-0.004-0.004-0.006
			c0-0.002,0.002-0.002,0.004-0.002c0.006,0,0.036,0,0.043,0c0.029,0,0.081-0.002,0.131-0.006c0.012-0.001,0.024-0.002,0.028-0.014
			c0.006-0.013-0.002-0.123-0.004-0.148c-0.002-0.031-0.003-0.044-0.033-0.042L16.46,5.278c-0.018,0.001-0.024,0.008-0.033,0.021
			c-0.026,0.038-0.069,0.1-0.082,0.101c-0.001,0-0.001-0.001-0.001-0.002c-0.001-0.007,0.028-0.066,0.033-0.079
			c0.037-0.089,0.069-0.214,0.074-0.248c0.005-0.03,0.005-0.031,0.009-0.032c0.007-0.001,0.093,0.033,0.093,0.041
			c0,0.005,0,0.005-0.021,0.02c-0.01,0.007-0.017,0.02-0.025,0.04c-0.008,0.016-0.046,0.099-0.046,0.103
			c0.001,0.008,0.007,0.007,0.024,0.006l0.125-0.009c0.029-0.002,0.04-0.003,0.051-0.01c0.007-0.005,0.032-0.045,0.039-0.046
			c0.005,0,0.068,0.043,0.069,0.058c0.001,0.012-0.004,0.012-0.048,0.015l-0.084,0.006c-0.011,0.001-0.026,0.002-0.026,0.027
			c0,0.009,0.006,0.137,0.007,0.148c0.001,0.016,0.004,0.031,0.032,0.029l0.02-0.001c0.04-0.003,0.045-0.003,0.052-0.012
			c0.005-0.006,0.029-0.046,0.039-0.047c0.005,0,0.008-0.001,0.042,0.036c0.005,0.005,0.019,0.02,0.019,0.025
			c0.001,0.012-0.017,0.013-0.049,0.015L16.646,5.494z M16.962,5.765c-0.018,0.001-0.026,0.01-0.025,0.031
			c0,0.005,0.003,0.028,0.003,0.033c0.002,0.028-0.01,0.053-0.048,0.056c-0.019,0.001-0.022-0.005-0.023-0.025
			c-0.001-0.014-0.004-0.088-0.004-0.093l-0.029-0.391c-0.004-0.048-0.01-0.105-0.02-0.163c-0.001-0.008-0.013-0.044-0.014-0.051
			c0-0.005-0.001-0.014,0.009-0.014c0.007-0.001,0.05,0.023,0.059,0.028c0.015,0.009,0.023,0.013,0.042,0.011l0.146-0.011
			c0.013-0.001,0.019-0.001,0.026-0.012c0.01-0.014,0.02-0.029,0.026-0.029c0.004,0,0.064,0.035,0.065,0.046
			c0,0.006-0.018,0.031-0.02,0.037c-0.003,0.013-0.002,0.024,0,0.055c0.001,0.009,0.033,0.41,0.035,0.422
			c0.005,0.046,0.006,0.051,0.006,0.059c0.004,0.048-0.024,0.069-0.049,0.07c-0.02,0.002-0.021-0.003-0.023-0.041
			c-0.001-0.013-0.002-0.031-0.03-0.029L16.962,5.765z M16.918,5.212c-0.03,0.002-0.029,0.014-0.026,0.06
			c0.005,0.067,0.033,0.431,0.038,0.451c0.003,0.017,0.021,0.018,0.029,0.017l0.135-0.01c0.011-0.001,0.023-0.005,0.026-0.015
			c0.002-0.011-0.017-0.296-0.018-0.314c-0.002-0.026-0.013-0.175-0.019-0.188c-0.005-0.01-0.016-0.012-0.028-0.011L16.918,5.212z"
			/>
		<path class="st0" d="M18.251,5.045c0.002,0.019-0.011,0.048-0.044,0.051c-0.009,0.001-0.014,0-0.058-0.01
			c-0.016-0.004-0.032-0.006-0.046-0.005c-0.039,0.004-0.065,0.034-0.062,0.071c0.001,0.009,0.012,0.049,0.013,0.058
			c0.001,0.009-0.003,0.066-0.003,0.08c-0.001,0.036,0,0.119,0.003,0.143c0.001,0.014,0.006,0.044,0.03,0.042
			c0.018-0.002,0.044-0.022,0.053-0.029c0.055-0.045,0.089-0.072,0.15-0.078c0.103-0.011,0.184,0.053,0.192,0.132
			c0.012,0.117-0.132,0.211-0.271,0.226c-0.013,0.001-0.026,0.003-0.027-0.005c0-0.005,0.02-0.012,0.027-0.014
			c0.117-0.04,0.2-0.125,0.19-0.216c-0.011-0.101-0.099-0.097-0.118-0.095c-0.034,0.004-0.081,0.019-0.117,0.085
			c-0.038,0.067-0.046,0.085-0.079,0.088c-0.04,0.004-0.078-0.038-0.086-0.112c-0.004-0.04,0-0.22-0.001-0.256
			c-0.001-0.034-0.002-0.083,0.075-0.125c0.051-0.028,0.074-0.04,0.071-0.068c-0.002-0.018-0.01-0.028-0.021-0.042
			c-0.002-0.004-0.006-0.009-0.003-0.012C18.123,4.947,18.245,4.991,18.251,5.045z"/>
		<path class="st0" d="M19.78,4.916c0.002,0.065,0.002,0.072,0.003,0.078c0.001,0.005,0.008,0.004,0.011,0.003
			c0.004,0,0.037-0.009,0.045-0.01c0.021-0.005,0.029-0.007,0.028-0.017c-0.001-0.006-0.003-0.007-0.022-0.021
			c-0.002-0.001-0.004-0.003-0.005-0.005c-0.001-0.004,0.005-0.005,0.007-0.005c0.01-0.001,0.055,0.005,0.071,0.008
			C19.981,4.955,19.997,4.968,20,4.987c0.003,0.025-0.023,0.035-0.043,0.038s-0.104,0.004-0.121,0.006
			c-0.056,0.008-0.056,0.01-0.055,0.06c0.001,0.144-0.044,0.2-0.078,0.205c-0.033,0.005-0.038-0.005-0.05-0.032
			c-0.007-0.014-0.017-0.029-0.024-0.04c-0.002-0.003-0.015-0.015-0.015-0.018c0-0.002,0.003-0.002,0.005-0.003
			c0.011-0.001,0.056,0.01,0.065,0.009c0.016-0.002,0.025-0.013,0.029-0.029c0.011-0.037,0.014-0.103,0.013-0.113
			c-0.001-0.008-0.002-0.012-0.016-0.01c-0.02,0.003-0.188,0.065-0.198,0.088c-0.005,0.012-0.005,0.022-0.003,0.041
			c0.003,0.032,0.014,0.119,0.014,0.122c0.013,0.09,0.036,0.133,0.17,0.114c0.019-0.003,0.052-0.008,0.083-0.019
			c0.004-0.001,0.032-0.011,0.045-0.013c0.027-0.004,0.054,0.013,0.057,0.034c0.006,0.045-0.081,0.057-0.103,0.06
			c-0.274,0.038-0.284-0.039-0.31-0.221c-0.011-0.08-0.012-0.09-0.03-0.088c-0.016,0.002-0.078,0.041-0.093,0.043
			c-0.021,0.003-0.101-0.004-0.108-0.057c-0.002-0.012,0.002-0.014,0.011-0.015c0.01-0.001,0.05-0.003,0.059-0.004
			c0.059-0.008,0.104-0.022,0.12-0.03c0.015-0.007,0.014-0.016,0.01-0.051c-0.007-0.052-0.015-0.075-0.029-0.098
			c-0.004-0.007-0.028-0.038-0.028-0.042c-0.001-0.009,0.014-0.016,0.026-0.017c0.023-0.003,0.086,0.015,0.091,0.049
			c0.001,0.006,0,0.016-0.001,0.03c0,0.001-0.001,0.03,0.005,0.074c0.003,0.02,0.004,0.028,0.016,0.026
			c0.007-0.001,0.124-0.044,0.148-0.052c0.058-0.018,0.065-0.02,0.066-0.04c0-0.02-0.004-0.066-0.006-0.078
			c-0.004-0.029-0.01-0.049-0.021-0.065c-0.001-0.001-0.023-0.031-0.023-0.033c-0.001-0.01,0.015-0.013,0.02-0.013
			c0.058-0.008,0.088,0.036,0.091,0.056C19.787,4.862,19.78,4.908,19.78,4.916z"/>
	</g>
	<path class="st0" d="M0.035,6.606L0,6.587c0.005-0.009,0.482-0.88,1.628-1.719C2.685,4.095,4.544,3.19,7.396,3.274
		c2.84,0.083,5.058-0.811,6.417-1.576C15.285,0.868,16.096,0.009,16.104,0l0.029,0.028c-0.008,0.009-0.823,0.872-2.3,1.704
		C12.47,2.5,10.245,3.397,7.395,3.314c-2.84-0.083-4.691,0.817-5.743,1.587C0.513,5.734,0.04,6.597,0.035,6.606z"/>
	<path class="st0" d="M1.117,9.032L1.105,8.994c0.037-0.012,3.701-1.207,6.73-0.968C8.575,8.085,9.299,8.189,9.999,8.29
		c2.241,0.323,4.559,0.657,8.218-0.295l0.01,0.039C14.56,8.988,12.239,8.653,9.993,8.33C9.294,8.229,8.571,8.125,7.831,8.066
		C4.81,7.828,1.154,9.02,1.117,9.032z"/>
</g>
</svg>
