<svg xmlns="http://www.w3.org/2000/svg" viewBox="0 0 292 137.9">
  <defs>
    <style>
      .cls-1 {
        fill: #dbdbdb;
      }

      .cls-2 {
        fill: #d3c7b4;
      }

      .cls-3 {
        fill: #5b5b5b;
      }
    </style>
  </defs>
  <title>アセット 1</title>
  <g id="レイヤー_2" data-name="レイヤー 2">
    <g id="レイヤー_1-2" data-name="レイヤー 1">
      <g>
        <path class="cls-1" d="M33.78,112.07a1.21,1.21,0,0,1-.76-.46.88.88,0,0,1,.41-1.27c.74-.44,80.82-36,199.24-3.94a1,1,0,0,1,.7,1.26,1,1,0,0,1-1.17.71C169.3,93,126.13,93.14,90.26,98.05c57.6-3.69,151.64,26.05,163.55,31.33a1,1,0,0,1,.7,1.16c-.14.49-.67,1.31-1.16,1.17-.1,0-.19-.12-.29-.13-1.26-.51-142.43-54.93-218.68-19.45A1.15,1.15,0,0,0,33.78,112.07Z"/>
        <path class="cls-1" d="M25.8,114.2a1,1,0,0,1-1-1,1.42,1.42,0,0,1,.2-.6C84.8,43.5,151.5,37.8,152.2,37.8a1,1,0,0,1,.1,1.9c-.7,0-62.5,5.5-120.4,68C52.5,94.1,111.8,55.46,172,56.36a1,1,0,0,1,0,2h-2c-71.3,0-142.9,55-143.7,55.64A.76.76,0,0,1,25.8,114.2Z"/>
        <path class="cls-1" d="M32.09,111.55a.81.81,0,0,1-.54,0,1,1,0,0,1-.64-1.26,1.48,1.48,0,0,1,.37-.51C109.55,62.64,189,73.86,189.69,74.07a1,1,0,0,1-.49,1.84c-.67-.22-75.42-10.1-149.84,31.38Z"/>
        <path class="cls-1" d="M25.8,114.2a.6.6,0,0,1-.4-.1.88.88,0,0,1-.5-1.2c.2-.7,20.8-66.1,82-108a1,1,0,0,1,1.4,1.4c-.1.1-.2.2-.3.2C61.6,38.3,38.8,83.8,30.5,103.6,71.8,39,129.21,20.09,129.81,19.89a1,1,0,1,1,.8,1.8c-.1,0-.2.1-.3.1-.6.1-62.61,20.21-103.61,91.81A1.21,1.21,0,0,1,25.8,114.2Z"/>
        <circle class="cls-2" cx="25.8" cy="113.2" r="8.9"/>
        <g>
          <path class="cls-3" d="M117.8,6.6a3.78,3.78,0,0,0,2.3.8c1.1,0,1.6-.4,1.6-1.2,0-.6-.3-1-1.1-1.1l-1.1-.2a3,3,0,0,1-1.6-.8,2.27,2.27,0,0,1-.6-1.6A2.41,2.41,0,0,1,118,.7a2.88,2.88,0,0,1,2-.7,4.11,4.11,0,0,1,2.6.9l-.7,1a3.61,3.61,0,0,0-2-.6,1.69,1.69,0,0,0-1,.3,1.09,1.09,0,0,0-.1,1.6,1.27,1.27,0,0,0,.9.4l.9.1a2.59,2.59,0,0,1,1.7.9,2.27,2.27,0,0,1,.6,1.6c0,1.6-1,2.4-2.9,2.4a4.69,4.69,0,0,1-3.1-1.1Z"/>
          <path class="cls-3" d="M127.7,8.1h0a.66.66,0,0,1-.5.4,1.41,1.41,0,0,1-.9.1,2.46,2.46,0,0,1-1.5-.5,1.61,1.61,0,0,1-.6-1.3,2.11,2.11,0,0,1,.5-1.3,1.55,1.55,0,0,1,1.4-.5h1.6V4.4c0-.5-.4-.8-1.2-.8a1.7,1.7,0,0,0-.7.1.78.78,0,0,0-.4.4l-.9-.7a2.25,2.25,0,0,1,2-.9,2.62,2.62,0,0,1,1.7.5,2,2,0,0,1,.7,1.6v4h-1.2Zm0-2h-1.4c-.7,0-1,.3-1,.7a.55.55,0,0,0,.3.5.78.78,0,0,0,.8.2,1.8,1.8,0,0,0,1-.2,1.4,1.4,0,0,0,.3-.9Z"/>
          <path class="cls-3" d="M130.8,2.6H132v.6a2.13,2.13,0,0,1,1.5-.7,2.09,2.09,0,0,1,1.6.8,1.08,1.08,0,0,1,.3.7,8.08,8.08,0,0,1,.1,1.6,7.57,7.57,0,0,1-.1,1.5c0,.3-.2.5-.3.8l-.6.6a2.92,2.92,0,0,1-.9.2,1.88,1.88,0,0,1-.8-.2,1.79,1.79,0,0,1-.7-.5v3h-1.2Zm2.3,4.9c.2,0,.5,0,.6-.2s.3-.3.4-.4a1.27,1.27,0,0,0,.1-.6V4.9c0-.2-.1-.4-.1-.6a.78.78,0,0,0-.4-.4.66.66,0,0,0-.6-.1,1.42,1.42,0,0,0-.6.2c-.2.1-.3.3-.4.4a1.27,1.27,0,0,0-.1.6V6.3c0,.2.1.4.1.6a.78.78,0,0,0,.4.4A1.42,1.42,0,0,0,133.1,7.5Z"/>
          <path class="cls-3" d="M137.2,2.6h1.2v.6a2.13,2.13,0,0,1,1.5-.7,2.09,2.09,0,0,1,1.6.8,1.08,1.08,0,0,1,.3.7,8.08,8.08,0,0,1,.1,1.6,7.57,7.57,0,0,1-.1,1.5c0,.3-.2.5-.3.8l-.6.6a2.92,2.92,0,0,1-.9.2,1.88,1.88,0,0,1-.8-.2,1.79,1.79,0,0,1-.7-.5v3h-1.2V2.6Zm2.3,4.9a1,1,0,0,0,.7-.2.54.54,0,0,0,.3-.4,1.27,1.27,0,0,0,.1-.6V4.9c0-.2-.1-.4-.1-.6a1.38,1.38,0,0,0-.3-.4.82.82,0,0,0-.7-.1,1.42,1.42,0,0,0-.6.2c-.2.1-.3.3-.4.4a1.27,1.27,0,0,0-.1.6V6.3c0,.2.1.4.1.6a.78.78,0,0,0,.4.4A1.42,1.42,0,0,0,139.5,7.5Z"/>
          <path class="cls-3" d="M143.3,5.6a7.57,7.57,0,0,1,.1-1.5,2.18,2.18,0,0,1,.5-.8,1.79,1.79,0,0,1,.7-.5,2.8,2.8,0,0,1,2.2,0,1.47,1.47,0,0,1,.6.5,2.18,2.18,0,0,1,.5.8,7.57,7.57,0,0,1,.1,1.5,6.6,6.6,0,0,1-.1,1.4,4.05,4.05,0,0,1-.5.9l-.3.3a1.38,1.38,0,0,1-.4.3,2.17,2.17,0,0,1-2.2,0,1.79,1.79,0,0,1-.7-.5,1.93,1.93,0,0,1-.5-.9A7.5,7.5,0,0,0,143.3,5.6Zm3.6,0V4.7a.76.76,0,0,0-.2-.5,1.38,1.38,0,0,0-.4-.3,1.27,1.27,0,0,0-.6-.1.75.75,0,0,0-.5.1,1.38,1.38,0,0,0-.4.3c-.1.2-.2.3-.2.5a2.77,2.77,0,0,0-.1.9,2.77,2.77,0,0,0,.1.9.76.76,0,0,0,.2.5,1.38,1.38,0,0,0,.4.3,1.09,1.09,0,0,0,.5.1,1.27,1.27,0,0,0,.6-.1c.1-.1.3-.2.4-.3s.2-.3.2-.5V5.6Z"/>
          <path class="cls-3" d="M149.7,2.6h1.2v.6h0a1.8,1.8,0,0,1,1.5-.7,1.66,1.66,0,0,1,1.2.5l-.9,1a1.22,1.22,0,0,0-1.6,0,1.28,1.28,0,0,0-.4,1V8.6h-1.2l.2-6Z"/>
          <path class="cls-3" d="M154.3,5.6a7.57,7.57,0,0,1,.1-1.5,2.36,2.36,0,0,1,1.2-1.4,2,2,0,0,1,1.1-.2,3.59,3.59,0,0,1,1.1.2,1.47,1.47,0,0,1,.6.5,2.18,2.18,0,0,1,.5.8,3.81,3.81,0,0,1,.1,1.5,6.6,6.6,0,0,1-.1,1.4,4.05,4.05,0,0,1-.5.9l-.3.3a1.38,1.38,0,0,1-.4.3,2.8,2.8,0,0,1-2.2,0,1.79,1.79,0,0,1-.7-.5,1.93,1.93,0,0,1-.5-.9A6.55,6.55,0,0,0,154.3,5.6Zm3.6,0V4.7a.76.76,0,0,0-.2-.5,1.38,1.38,0,0,0-.4-.3,1.85,1.85,0,0,0-1.2,0,1.38,1.38,0,0,0-.4.3.76.76,0,0,0-.2.5,2.77,2.77,0,0,0-.1.9,2.77,2.77,0,0,0,.1.9.76.76,0,0,0,.2.5,1.38,1.38,0,0,0,.4.3,1.85,1.85,0,0,0,1.2,0c.1-.1.3-.2.4-.3s.2-.3.2-.5V5.6Z"/>
        </g>
        <g>
          <path class="cls-3" d="M138,15.3h1.2l3.7,6h0v-6h1.2v8.4h-1.2l-3.7-6h0v6H138Z"/>
          <path class="cls-3" d="M149.3,23.2h0a1.21,1.21,0,0,1-.5.5,1.41,1.41,0,0,1-.9.1,2.46,2.46,0,0,1-1.5-.5,1.61,1.61,0,0,1-.6-1.3,2.11,2.11,0,0,1,.5-1.3,1.55,1.55,0,0,1,1.4-.5h1.6v-.6c0-.5-.4-.8-1.2-.8a1.7,1.7,0,0,0-.7.1.78.78,0,0,0-.4.4l-1-.7a2.25,2.25,0,0,1,2-.9,3.92,3.92,0,0,1,1.8.4,1.93,1.93,0,0,1,.7,1.5v4.1h-1.2Zm0-2h-1.4c-.7,0-1,.3-1,.7a.55.55,0,0,0,.3.5.78.78,0,0,0,.8.2,1.8,1.8,0,0,0,1-.2,1.4,1.4,0,0,0,.3-.9Z"/>
          <path class="cls-3" d="M155.6,23.1a2.13,2.13,0,0,1-1.5.7,1.4,1.4,0,0,1-.9-.3,2.65,2.65,0,0,1-.6-.5,1.08,1.08,0,0,1-.3-.7,8.6,8.6,0,0,1-.1-1.6,8.6,8.6,0,0,1,.1-1.6,4.88,4.88,0,0,1,.3-.7,2.65,2.65,0,0,1,.6-.5,1.49,1.49,0,0,1,.9-.2,2.13,2.13,0,0,1,1.5.7v-.6h1.2v5.9a2.44,2.44,0,0,1-2.2,2.6h-.3a2.61,2.61,0,0,1-2-1l.9-.8c.2.1.3.3.5.4a1.42,1.42,0,0,0,.6.2,1.69,1.69,0,0,0,1-.3,1.28,1.28,0,0,0,.4-1l-.1-.7Zm-2.3-2.4v1c0,.2.1.3.2.5a1.38,1.38,0,0,0,.4.3,1.42,1.42,0,0,0,.6.2.73.73,0,0,0,.6-.2c.1-.1.3-.2.4-.3a.76.76,0,0,0,.2-.5v-2c0-.2-.1-.3-.2-.5a1.38,1.38,0,0,0-.4-.3,1.08,1.08,0,0,0-1.1,0c-.1.1-.3.2-.4.3a.76.76,0,0,0-.2.4A4.48,4.48,0,0,0,153.3,20.7Z"/>
          <path class="cls-3" d="M158.5,20.7a7.57,7.57,0,0,1,.1-1.5,2.18,2.18,0,0,1,.5-.8,1.79,1.79,0,0,1,.7-.5,2,2,0,0,1,1.1-.2,3.59,3.59,0,0,1,1.1.2,1.47,1.47,0,0,1,.6.5,2.18,2.18,0,0,1,.5.8,3.81,3.81,0,0,1,.1,1.5,7.57,7.57,0,0,1-.1,1.5,4.05,4.05,0,0,1-.5.9l-.3.3a.52.52,0,0,1-.4.2,2.17,2.17,0,0,1-2.2,0,1.79,1.79,0,0,1-.7-.5,1.93,1.93,0,0,1-.5-.9A7.52,7.52,0,0,1,158.5,20.7Zm3.6,0a2.77,2.77,0,0,0-.1-.9.76.76,0,0,0-.2-.5c-.1-.1-.2-.3-.4-.3a1.85,1.85,0,0,0-1.2,0,1.38,1.38,0,0,0-.4.3c-.1.2-.2.3-.2.5a2.77,2.77,0,0,0-.1.9,2.77,2.77,0,0,0,.1.9.76.76,0,0,0,.2.5,1.38,1.38,0,0,0,.4.3,1.85,1.85,0,0,0,1.2,0c.1-.1.3-.2.4-.3s.2-.3.2-.5a2.77,2.77,0,0,0,.1-.9Z"/>
          <path class="cls-3" d="M164.1,17.7h1.2l1.4,4.2h0l1.4-4.2h1.2L166.8,25a1.6,1.6,0,0,1-.7.9,1.93,1.93,0,0,1-1,.3h-.4V25h.3c.2,0,.3,0,.4-.1a1.38,1.38,0,0,0,.3-.4l.3-1Z"/>
          <path class="cls-3" d="M173.5,23.2h0a1.21,1.21,0,0,1-.5.5,1.41,1.41,0,0,1-.9.1,2.46,2.46,0,0,1-1.5-.5A1.61,1.61,0,0,1,170,22a2.11,2.11,0,0,1,.5-1.3,1.55,1.55,0,0,1,1.4-.5h1.6v-.6c0-.5-.4-.8-1.2-.8a1.7,1.7,0,0,0-.7.1.78.78,0,0,0-.4.4l-.9-.7a2.25,2.25,0,0,1,2-.9,3.92,3.92,0,0,1,1.8.4,1.93,1.93,0,0,1,.7,1.5v4.1h-1.2Zm0-2h-1.4c-.7,0-1,.3-1,.7a.55.55,0,0,0,.3.5.78.78,0,0,0,.8.2,1.8,1.8,0,0,0,1-.2q.3-.15.3-.9Z"/>
        </g>
        <g>
          <path class="cls-3" d="M4.5,128.2H1.2v3.7H0v-8.4H1.2v3.6H4.4v-3.6H5.6v8.4H4.5Z"/>
          <path class="cls-3" d="M10.9,131.4h0a.66.66,0,0,1-.5.4,1.41,1.41,0,0,1-.9.1,2.69,2.69,0,0,1-1.5-.5,1.61,1.61,0,0,1-.6-1.3,2.11,2.11,0,0,1,.5-1.3,1.87,1.87,0,0,1,1.4-.5h1.6v-.6c0-.5-.4-.8-1.2-.8a1.7,1.7,0,0,0-.7.1.78.78,0,0,0-.4.4l-.9-.7a2.52,2.52,0,0,1,2-.9,3.92,3.92,0,0,1,1.8.4,2,2,0,0,1,.7,1.6v4.1H11v-.5Zm0-2H9.5c-.7,0-1,.3-1,.7a.55.55,0,0,0,.3.5.78.78,0,0,0,.8.2,1.8,1.8,0,0,0,1-.2q.3-.15.3-.9Z"/>
          <path class="cls-3" d="M14,125.9h1.2v.6h0a1.8,1.8,0,0,1,1.5-.7,1.89,1.89,0,0,1,1.9,2.1v4H17.4v-3.6a1.69,1.69,0,0,0-.3-1,1.22,1.22,0,0,0-1.6,0,1.21,1.21,0,0,0-.3,1v3.6H14Z"/>
          <path class="cls-3" d="M23.6,131.4h0a.66.66,0,0,1-.5.4,1.41,1.41,0,0,1-.9.1,2.69,2.69,0,0,1-1.5-.5,1.61,1.61,0,0,1-.6-1.3,2.11,2.11,0,0,1,.5-1.3,1.87,1.87,0,0,1,1.4-.5h1.6v-.6c0-.5-.4-.8-1.2-.8a1.7,1.7,0,0,0-.7.1.78.78,0,0,0-.4.4l-.9-.7a2.52,2.52,0,0,1,2-.9,3.92,3.92,0,0,1,1.8.4,2,2,0,0,1,.7,1.6v4.1H23.7v-.5Zm0-2H22.2c-.7,0-1,.3-1,.7a.55.55,0,0,0,.3.5.78.78,0,0,0,.8.2,1.8,1.8,0,0,0,1-.2q.3-.15.3-.9Z"/>
          <path class="cls-3" d="M26.7,125.9h1.2v.6h0a2,2,0,0,1,1.6-.7,3.55,3.55,0,0,1,1,.2,2,2,0,0,1,.7.6,2.73,2.73,0,0,1,1.9-.8,2.39,2.39,0,0,1,1.4.5,1.91,1.91,0,0,1,.6,1.6v4H33.9v-3.6a1.69,1.69,0,0,0-.3-1,1.22,1.22,0,0,0-.9-.3,1.61,1.61,0,0,0-.9.3,1.28,1.28,0,0,0-.4,1v3.6H30.2v-3.6a1.69,1.69,0,0,0-.3-1,1.35,1.35,0,0,0-1.7,0,1.28,1.28,0,0,0-.4,1v3.6H26.6v-6Z"/>
          <path class="cls-3" d="M40.1,131.4h0a.66.66,0,0,1-.5.4,1.41,1.41,0,0,1-.9.1,2.69,2.69,0,0,1-1.5-.5,1.3,1.3,0,0,1-.5-1.3,2.11,2.11,0,0,1,.5-1.3,1.55,1.55,0,0,1,1.4-.5h1.6v-.6c0-.5-.4-.8-1.2-.8a1.7,1.7,0,0,0-.7.1.78.78,0,0,0-.4.4l-.9-.7a2.52,2.52,0,0,1,2-.9,3.92,3.92,0,0,1,1.8.4,2,2,0,0,1,.7,1.6v4.1H40.3v-.5Zm0-2H38.7c-.7,0-1,.3-1,.7a.55.55,0,0,0,.3.5.78.78,0,0,0,.8.2,1.8,1.8,0,0,0,1-.2q.3-.15.3-.9Z"/>
          <path class="cls-3" d="M43.2,123.5h1.2v5.2h0l2.2-2.8H48l-2,2.3,2.3,3.7H46.8l-1.5-2.8-.9,1.1v1.7H43.2Z"/>
          <path class="cls-3" d="M49.7,123.5h1.2v1.2H49.7Zm0,2.4h1.2v6H49.7Z"/>
        </g>
        <circle class="cls-2" cx="109.6" cy="4.5" r="4.5"/>
        <circle class="cls-2" cx="130.5" cy="20.5" r="4.5"/>
        <g>
          <g>
            <path class="cls-3" d="M159.8,38.7a13.4,13.4,0,0,1,.1-2,1.14,1.14,0,0,1,.3-.8,2.93,2.93,0,0,1,.9-1,2.88,2.88,0,0,1,4,.7c.1.1.1.2.2.3s.2.5.3.8a13.4,13.4,0,0,1,.1,2,13.4,13.4,0,0,1-.1,2,1.14,1.14,0,0,1-.3.8,2.19,2.19,0,0,1-.9,1,2.81,2.81,0,0,1-3.2,0,2.19,2.19,0,0,1-.9-1c-.1-.1-.1-.2-.2-.4s-.1-.3-.1-.4A6.8,6.8,0,0,1,159.8,38.7Zm1.2,0a9.7,9.7,0,0,0,.1,1.7.91.91,0,0,0,.3.7,1,1,0,0,0,.5.4,1.88,1.88,0,0,0,.8.2,2.35,2.35,0,0,0,.8-.2,1,1,0,0,0,.5-.4,1.08,1.08,0,0,0,.3-.7,9.7,9.7,0,0,0,.1-1.7,9.7,9.7,0,0,0-.1-1.7,1.49,1.49,0,0,0-.3-.7,1,1,0,0,0-.5-.4,1.88,1.88,0,0,0-.8-.2,2.35,2.35,0,0,0-.8.2,2.18,2.18,0,0,0-.5.4.91.91,0,0,0-.3.7,9.7,9.7,0,0,0-.1,1.7Z"/>
            <path class="cls-3" d="M167.6,41.1a2.5,2.5,0,0,0,1.8.8,1.88,1.88,0,0,0,.8-.2.6.6,0,0,0,.3-.6c0-.2-.1-.3-.2-.5s-.3-.1-.5-.2l-1-.1a1.85,1.85,0,0,1-1.2-.5,1.66,1.66,0,0,1-.5-1.2,2,2,0,0,1,.6-1.4,2.69,2.69,0,0,1,1.5-.5h.7a1.42,1.42,0,0,1,.6.2,2.07,2.07,0,0,1,1,.6l-.7.9a2.51,2.51,0,0,0-.7-.4,2.92,2.92,0,0,0-.9-.2,1.2,1.2,0,0,0-.8.2c-.2.1-.2.3-.2.5s.1.3.2.3a1.42,1.42,0,0,0,.6.2l1,.1a1.61,1.61,0,0,1,1.3.6,1.92,1.92,0,0,1,.4,1.2,1.62,1.62,0,0,1-.7,1.4,3.37,3.37,0,0,1-1.7.5,3.63,3.63,0,0,1-2.6-1.1Z"/>
            <path class="cls-3" d="M176.4,42.4h0a1.21,1.21,0,0,1-.5.5,2.92,2.92,0,0,1-.9.2,2.46,2.46,0,0,1-1.5-.5,1.61,1.61,0,0,1-.6-1.3,2.11,2.11,0,0,1,.5-1.3,1.87,1.87,0,0,1,1.4-.5h1.6v-.6c0-.5-.4-.8-1.2-.8a1.7,1.7,0,0,0-.7.1.78.78,0,0,0-.4.4l-.9-.7a2.25,2.25,0,0,1,2-.9,3.92,3.92,0,0,1,1.8.4,1.8,1.8,0,0,1,.7,1.5V43h-1.3v-.6Zm0-2H175c-.7,0-1,.3-1,.7a.55.55,0,0,0,.3.5.78.78,0,0,0,.8.2,1.8,1.8,0,0,0,1-.2,1.4,1.4,0,0,0,.3-.9v-.3Z"/>
            <path class="cls-3" d="M179.5,34.5h1.2v5.3h0L183,37h1.4l-2,2.3,2.3,3.7h-1.5l-1.5-2.8-.9,1.1V43h-1.2Z"/>
            <path class="cls-3" d="M189,42.4h0a1.21,1.21,0,0,1-.5.5,2.92,2.92,0,0,1-.9.2,2.46,2.46,0,0,1-1.5-.5,1.61,1.61,0,0,1-.6-1.3A2.11,2.11,0,0,1,186,40a1.87,1.87,0,0,1,1.4-.5H189v-.6c0-.5-.4-.8-1.2-.8a1.7,1.7,0,0,0-.7.1.78.78,0,0,0-.4.4l-.9-.7a2.52,2.52,0,0,1,2-.9,3.92,3.92,0,0,1,1.8.4,1.8,1.8,0,0,1,.7,1.5V43H189Zm0-2h-1.4c-.7,0-1,.3-1,.7a.55.55,0,0,0,.3.5.78.78,0,0,0,.8.2,1.8,1.8,0,0,0,1-.2q.3-.15.3-.9Z"/>
          </g>
          <circle class="cls-2" cx="152.5" cy="38.4" r="4.5"/>
        </g>
        <g>
          <g>
            <path class="cls-3" d="M197.2,71.11h5.2v1.2h-4v2.5h3.4v1.1h-3.4v3.6h-1.2Z"/>
            <path class="cls-3" d="M203.7,73.51h1.2v3.6a1.93,1.93,0,0,0,.3,1,.83.83,0,0,0,.8.3,1.14,1.14,0,0,0,.8-.3,1.21,1.21,0,0,0,.3-1v-3.6h1.2v6h-1.2v-.6h0a1.8,1.8,0,0,1-1.5.7,2,2,0,0,1-2-2v-.1Z"/>
            <path class="cls-3" d="M210.3,71.11h1.2v5.3h0l2.2-2.8h1.4l-2,2.3,2.3,3.7h-1.5l-1.5-2.8-.9,1.1v1.7h-1.2Z"/>
            <path class="cls-3" d="M216.7,73.51h1.2v3.6a1.93,1.93,0,0,0,.3,1,.83.83,0,0,0,.8.3,1.14,1.14,0,0,0,.8-.3,1.69,1.69,0,0,0,.3-1v-3.6h1.2v6h-1.2v-.6h0a1.8,1.8,0,0,1-1.5.7,2,2,0,0,1-2-2h0Z"/>
            <path class="cls-3" d="M223,76.51a7.57,7.57,0,0,1,.1-1.5,2.18,2.18,0,0,1,.5-.8,1.79,1.79,0,0,1,.7-.5,2,2,0,0,1,1.1-.2,3.59,3.59,0,0,1,1.1.2,1.47,1.47,0,0,1,.6.5,2.18,2.18,0,0,1,.5.8,3.81,3.81,0,0,1,.1,1.5,6.15,6.15,0,0,1-.1,1.4,4.05,4.05,0,0,1-.5.9l-.3.3a1.38,1.38,0,0,1-.4.3,2.17,2.17,0,0,1-2.2,0,1.79,1.79,0,0,1-.7-.5,1.93,1.93,0,0,1-.5-.9Zm3.6,0v-.9a.76.76,0,0,0-.2-.5,1.38,1.38,0,0,0-.4-.3,1.27,1.27,0,0,0-.6-.1.75.75,0,0,0-.5.1,1.38,1.38,0,0,0-.4.3c-.1.2-.2.3-.2.5a4.1,4.1,0,0,0,0,1.8.76.76,0,0,0,.2.5,1.38,1.38,0,0,0,.4.3,1.08,1.08,0,0,0,1.1,0,1.38,1.38,0,0,0,.4-.3c.1-.2.2-.3.2-.5v-.9Z"/>
            <path class="cls-3" d="M229.4,71.11h1.2v5.3h0l2.2-2.8h1.4l-2,2.3,2.3,3.7H233l-1.6-2.8-.9,1.1v1.7h-1.2Z"/>
            <path class="cls-3" d="M238.9,79h0a1.21,1.21,0,0,1-.5.5,2.92,2.92,0,0,1-.9.2,2.46,2.46,0,0,1-1.5-.5,1.61,1.61,0,0,1-.6-1.3,2.11,2.11,0,0,1,.5-1.3,1.55,1.55,0,0,1,1.4-.5h1.6v-.6c0-.5-.4-.8-1.2-.8a1.7,1.7,0,0,0-.7.1.78.78,0,0,0-.4.4l-.9-.7a2.25,2.25,0,0,1,2-.9,3.92,3.92,0,0,1,1.8.4,1.93,1.93,0,0,1,.7,1.5v4.1H239Zm0-2h-1.4c-.7,0-1,.3-1,.7a.55.55,0,0,0,.3.5.78.78,0,0,0,.8.2,1.8,1.8,0,0,0,1-.2q.3-.15.3-.9Z"/>
          </g>
          <circle class="cls-2" cx="189.8" cy="75.01" r="4.5"/>
        </g>
        <g>
          <g>
            <path class="cls-3" d="M240,109.9a3.78,3.78,0,0,0,2.3.8c1.1,0,1.6-.4,1.6-1.2s-.4-1-1.1-1.1l-1.1-.2a3,3,0,0,1-1.6-.8,2.27,2.27,0,0,1-.6-1.6,2.41,2.41,0,0,1,.7-1.8,2.64,2.64,0,0,1,1.9-.7,3.92,3.92,0,0,1,2.6.9l-.7,1a4.79,4.79,0,0,0-2-.7,1.69,1.69,0,0,0-1,.3,1.09,1.09,0,0,0-.1,1.6,1.27,1.27,0,0,0,.9.4l.9.1a2.59,2.59,0,0,1,1.7.9,2.2,2.2,0,0,1,.5,1.6c0,1.6-1,2.4-2.9,2.5a4.47,4.47,0,0,1-3.1-1.2Z"/>
            <path class="cls-3" d="M246.8,103.6H248v3.1h0a1.8,1.8,0,0,1,1.5-.7,1.9,1.9,0,0,1,1.3.5,2.27,2.27,0,0,1,.6,1.6v4h-1.2v-3.6a1.69,1.69,0,0,0-.3-1,.83.83,0,0,0-.8-.3,1.14,1.14,0,0,0-.8.3,1.21,1.21,0,0,0-.3,1v3.6h-1.2Z"/>
            <path class="cls-3" d="M256.5,111.5h0a.66.66,0,0,1-.5.4,2.92,2.92,0,0,1-.9.2,2.46,2.46,0,0,1-1.5-.5,1.61,1.61,0,0,1-.6-1.3,2.11,2.11,0,0,1,.5-1.3,1.87,1.87,0,0,1,1.4-.5h1.6v-.6c0-.5-.4-.8-1.2-.8a1.7,1.7,0,0,0-.7.1.78.78,0,0,0-.4.4l-.9-.7a2.25,2.25,0,0,1,2-.9,3.92,3.92,0,0,1,1.8.4,2,2,0,0,1,.7,1.6v4.1h-1.2Zm0-2h-1.4c-.7,0-1,.3-1,.7a.55.55,0,0,0,.3.5.78.78,0,0,0,.8.2,1.8,1.8,0,0,0,1-.2,1.4,1.4,0,0,0,.3-.9Z"/>
            <path class="cls-3" d="M259.6,106h1.2v.6h0a1.8,1.8,0,0,1,1.5-.7,1.89,1.89,0,0,1,1.9,2.1v4H263v-3.6a1.69,1.69,0,0,0-.3-1,.83.83,0,0,0-.8-.3,1.14,1.14,0,0,0-.8.3,1.21,1.21,0,0,0-.3,1V112h-1.1v-6Z"/>
            <path class="cls-3" d="M269.4,111.4a2.13,2.13,0,0,1-1.5.7,1.4,1.4,0,0,1-.9-.3,2.65,2.65,0,0,1-.6-.5,1.08,1.08,0,0,1-.3-.7,12.85,12.85,0,0,1,0-3.2,4.88,4.88,0,0,1,.3-.7,1.8,1.8,0,0,1,1.5-.7,2.13,2.13,0,0,1,1.5.7v-.6h1.2V112a2.27,2.27,0,0,1-.8,2,2.87,2.87,0,0,1-1.8.7,2.61,2.61,0,0,1-2-1l.9-.8c.2.1.3.3.5.4a1.42,1.42,0,0,0,.6.2,1.69,1.69,0,0,0,1-.3,1.28,1.28,0,0,0,.4-1v-.8Zm-2.3-2.4v.9a.52.52,0,0,0,.2.4,1.38,1.38,0,0,0,.4.3,1.08,1.08,0,0,0,1.1,0c.1-.1.3-.2.4-.3a.76.76,0,0,0,.2-.4V108a.52.52,0,0,0-.2-.4,1.38,1.38,0,0,0-.4-.3,1.85,1.85,0,0,0-1.2,0c-.1.1-.3.2-.4.3a.76.76,0,0,0-.2.4A3.4,3.4,0,0,1,267.1,109Z"/>
            <path class="cls-3" d="M272.6,103.6h1.2v3.1h0a1.8,1.8,0,0,1,1.5-.7,1.9,1.9,0,0,1,1.3.5,2.27,2.27,0,0,1,.6,1.6v4H276v-3.6a1.69,1.69,0,0,0-.3-1,.83.83,0,0,0-.8-.3,1.14,1.14,0,0,0-.8.3,1.21,1.21,0,0,0-.3,1v3.6h-1.1v-8.5Z"/>
            <path class="cls-3" d="M282.2,111.5h0a.66.66,0,0,1-.5.4,2.92,2.92,0,0,1-.9.2,2.46,2.46,0,0,1-1.5-.5,1.61,1.61,0,0,1-.6-1.3,2.11,2.11,0,0,1,.5-1.3,1.87,1.87,0,0,1,1.4-.5h1.6v-.6c0-.5-.4-.8-1.2-.8a1.7,1.7,0,0,0-.7.1.78.78,0,0,0-.4.4l-.9-.7a2.25,2.25,0,0,1,2-.9,3.92,3.92,0,0,1,1.8.4,2,2,0,0,1,.7,1.6v4.1h-1.2Zm0-2h-1.4c-.7,0-1,.3-1,.7a.55.55,0,0,0,.3.5.78.78,0,0,0,.8.2,1.8,1.8,0,0,0,1-.2,1.4,1.4,0,0,0,.3-.9Z"/>
            <path class="cls-3" d="M285.4,103.6h1.2v1.2h-1.2Zm0,2.4h1.2v6h-1.2Z"/>
          </g>
          <circle class="cls-2" cx="232.8" cy="107.4" r="4.5"/>
        </g>
        <circle class="cls-2" cx="253.8" cy="130.8" r="4.5"/>
        <g>
          <polygon class="cls-3" points="261 128 263.2 128 263.2 135.4 264.5 135.4 264.5 128 266.8 128 266.8 126.8 261 126.8 261 128"/>
          <path class="cls-3" d="M269.7,129.2h-.1a2.2,2.2,0,0,0-1.9.9h0l1,.8h0a.78.78,0,0,1,.4-.4,1.7,1.7,0,0,1,.7-.1h.1a1.61,1.61,0,0,1,.9.3.37.37,0,0,1,.1.3c0,.1.1.1.1.2v.6h-1.6a2.17,2.17,0,0,0-1.4.5,1.87,1.87,0,0,0,.1,2.6,1.74,1.74,0,0,0,1.5.5,1.8,1.8,0,0,0,1-.2,1,1,0,0,0,.5-.4v.5h1.2v-4.2a2,2,0,0,0-.7-1.6A5.82,5.82,0,0,0,269.7,129.2Zm1.2,3.6v.4c0,.4-.1.7-.3.8a1.8,1.8,0,0,1-1,.2h-.1a1.88,1.88,0,0,1-.8-.2c-.2-.1-.2-.3-.3-.5,0-.5.3-.7,1-.7Zm-.6-2.3a.76.76,0,0,1,.4.1C270.5,130.6,270.4,130.5,270.3,130.5Z"/>
          <path class="cls-3" d="M281.7,130a2.09,2.09,0,0,0-1.6-.8,1.8,1.8,0,0,0-1.5.7v-.6h-1.2v8.6h1.2v-3a4.23,4.23,0,0,0,.7.5,2.35,2.35,0,0,0,.8.2,2.39,2.39,0,0,0,.9-.2.9.9,0,0,0,.6-.6,1.14,1.14,0,0,0,.3-.8,8.08,8.08,0,0,0,.1-1.6,8.6,8.6,0,0,0-.1-1.6A.83.83,0,0,0,281.7,130Zm-3,1.7c0-.2.1-.4.1-.6a.78.78,0,0,1,.4-.4,1.42,1.42,0,0,1,.6-.2,1.27,1.27,0,0,1,.6.1c.2.1.3.2.3.4a1.27,1.27,0,0,1,.1.6V133c0,.2-.1.4-.1.6a1.38,1.38,0,0,1-.3.4,1.42,1.42,0,0,1-.6.2.73.73,0,0,1-.6-.2c-.2-.1-.3-.3-.4-.4a1.27,1.27,0,0,1-.1-.6v-.6c0-.3-.1-.5,0-.7Z"/>
          <path class="cls-3" d="M286.3,129.2a2.92,2.92,0,0,0-.9.2,2.18,2.18,0,0,0-.8.5,3.33,3.33,0,0,0-.6,1,3.89,3.89,0,0,0-.2,1.5,4,4,0,0,0,.3,1.5,2.07,2.07,0,0,0,.6,1c.1.1.3.2.4.3a.76.76,0,0,0,.4.2,2.77,2.77,0,0,0,.9.1h0a2.81,2.81,0,0,0,2.1-1h0l-.9-.8h0a1.61,1.61,0,0,1-1.3.6,1.28,1.28,0,0,1-1-.4,1.5,1.5,0,0,1-.4-1.1h3.7v-1a2.64,2.64,0,0,0-.7-1.9A2.39,2.39,0,0,0,286.3,129.2Zm-1.2,2.6a1.28,1.28,0,0,1,.4-1,.92.92,0,0,1,.9-.3,1.61,1.61,0,0,1,.9.3,1.78,1.78,0,0,1,.4,1Z"/>
          <path class="cls-3" d="M290.8,127H292v1.2h-1.2Zm0,2.4H292v6h-1.2Z"/>
          <path class="cls-3" d="M274.2,127h1.2v1.2h-1.2Zm0,2.4h1.2v6h-1.2Z"/>
        </g>
        <g>
          <circle class="cls-2" cx="171.5" cy="57.36" r="4.5"/>
          <g>
            <path class="cls-3" d="M178.87,53h1.26v4.4h0l3.41-4.4h1.49l-2.66,3.37,2.93,5.18h-1.48l-2.26-4.18L180.13,59v2.6h-1.26Z"/>
            <path class="cls-3" d="M186,58.54a5.18,5.18,0,0,1,.16-1.48,2,2,0,0,1,.48-.85,2.38,2.38,0,0,1,.68-.54,2.53,2.53,0,0,1,1.11-.24,2.56,2.56,0,0,1,1.13.24,2.28,2.28,0,0,1,.66.54,2,2,0,0,1,.5.85,6.2,6.2,0,0,1,.14,1.48,6,6,0,0,1-.14,1.47,2.23,2.23,0,0,1-.5.87,1.76,1.76,0,0,1-.28.26,1.32,1.32,0,0,1-.38.25,2.33,2.33,0,0,1-1.13.27,2.27,2.27,0,0,1-1.11-.27,2.33,2.33,0,0,1-.68-.51,2.48,2.48,0,0,1-.49-.87A5.51,5.51,0,0,1,186,58.54Zm3.68,0a5.38,5.38,0,0,0-.06-.95,1.2,1.2,0,0,0-.24-.51.87.87,0,0,0-.38-.32,1.29,1.29,0,0,0-.57-.12,1.31,1.31,0,0,0-.56.12,1.26,1.26,0,0,0-.4.32,1.68,1.68,0,0,0-.22.51,6.28,6.28,0,0,0,0,1.87,1.69,1.69,0,0,0,.22.53,1.58,1.58,0,0,0,.4.31,1.18,1.18,0,0,0,.56.13,1.17,1.17,0,0,0,.57-.13,1,1,0,0,0,.38-.31,1.22,1.22,0,0,0,.24-.53A5.07,5.07,0,0,0,189.65,58.55Z"/>
            <path class="cls-3" d="M192.35,53h1.18v3.11a3,3,0,0,1,.71-.53,1.67,1.67,0,0,1,.81-.19,1.79,1.79,0,0,1,1.58.8A1.53,1.53,0,0,1,197,57a15.15,15.15,0,0,1,0,3.11,1.65,1.65,0,0,1-.34.78,1.75,1.75,0,0,1-.64.56,2.07,2.07,0,0,1-.94.23,2,2,0,0,1-1.52-.71v.64h-1.18Zm2.34,3.61a1,1,0,0,0-.63.17,1,1,0,0,0-.35.44,2.4,2.4,0,0,0-.15.6c0,.22,0,.45,0,.68s0,.44,0,.66a2.35,2.35,0,0,0,.15.62,1,1,0,0,0,.35.44,1,1,0,0,0,.63.18,1.18,1.18,0,0,0,.67-.17.92.92,0,0,0,.35-.43,2.68,2.68,0,0,0,.15-.62c0-.22,0-.45,0-.68s0-.48,0-.71a2.63,2.63,0,0,0-.15-.6,1,1,0,0,0-.35-.44A1.39,1.39,0,0,0,194.69,56.65Z"/>
            <path class="cls-3" d="M199.55,59a1.44,1.44,0,0,0,.41,1.11,1.33,1.33,0,0,0,1,.39,1.76,1.76,0,0,0,1.29-.59l.86.75a2.74,2.74,0,0,1-2.13,1,3,3,0,0,1-.9-.14,2,2,0,0,1-.44-.21,2.07,2.07,0,0,1-.41-.27,2.56,2.56,0,0,1-.61-.95,3.88,3.88,0,0,1-.25-1.53,4.32,4.32,0,0,1,.22-1.5,2.78,2.78,0,0,1,.57-1,1.92,1.92,0,0,1,.79-.51,2.33,2.33,0,0,1,.85-.16,2.43,2.43,0,0,1,1.7.68,2.49,2.49,0,0,1,.72,1.89v1ZM202,58a1.6,1.6,0,0,0-.37-1.08,1.3,1.3,0,0,0-1.75,0,1.7,1.7,0,0,0-.37,1.08Z"/>
          </g>
        </g>
      </g>
    </g>
  </g>
</svg>
