<?xml version="1.0" encoding="utf-8"?>
<!-- Generator: Adobe Illustrator 22.0.1, SVG Export Plug-In . SVG Version: 6.00 Build 0)  -->
<svg version="1.1" id="レイヤー_1" xmlns="http://www.w3.org/2000/svg" xmlns:xlink="http://www.w3.org/1999/xlink" x="0px"
	 y="0px" viewBox="0 0 11.707 6.587" style="enable-background:new 0 0 11.707 6.587;" xml:space="preserve">
<style type="text/css">
	.st0{fill:#D9D9D9;}
</style>
<g>
	<path class="st0" d="M0.938,0.024C0.947,0.016,0.955,0.008,0.965,0C0.955,0.007,0.946,0.015,0.938,0.024z"/>
	<path class="st0" d="M1.104,1.288c0,0.006,0,0.013,0,0.019c0,0.501,0.408,0.908,0.908,0.908c0.265,0,0.519-0.118,0.691-0.319
		c0.125,0.092,0.276,0.141,0.432,0.141c0.333,0,0.614-0.223,0.702-0.528C3.756,1.75,3.402,1.915,3.135,1.915
		c-0.148,0-0.29-0.054-0.401-0.151L2.677,1.708L2.644,1.774c-0.148,0.2-0.384,0.319-0.632,0.319c-0.433,0-0.786-0.352-0.786-0.786
		c0-0.018,0.001-0.036,0.002-0.053l0.025-0.048L1.192,1.193C0.954,1.091,0.8,0.858,0.8,0.599c0-0.193,0.012-0.446,0.138-0.575
		c-0.159,0.141-0.26,0.346-0.26,0.575C0.677,0.892,0.844,1.158,1.104,1.288z"/>
	<path class="st0" d="M10.5,6.125c-0.129-0.009-0.253-0.043-0.368-0.1l-0.042-0.021l-0.031,0.036
		C9.807,6.328,9.405,6.482,8.983,6.451C8.609,6.424,8.27,6.256,8.051,5.989L8.024,5.956L7.984,5.97
		C7.851,6.014,7.713,6.031,7.573,6.021C7.095,5.986,6.697,5.634,6.606,5.164L6.597,5.115L6.548,5.114
		c-0.014,0-0.028-0.001-0.042-0.002c-0.149-0.011-0.29-0.058-0.415-0.131c0.011-0.034,0.02-0.069,0.027-0.104
		C6.11,4.911,6.099,4.945,6.087,4.979c-0.329-0.194-0.549-0.572-0.52-0.963c0.018-0.252,0.07-0.505,0.231-0.672
		C5.613,3.526,5.492,3.772,5.472,4.05C5.44,4.49,5.672,4.89,6.033,5.095C5.823,5.483,5.337,5.752,4.88,5.752
		c-0.323,0-0.633-0.138-0.849-0.378L3.992,5.331L3.946,5.368C3.604,5.649,3.17,5.804,2.726,5.804c-1.061,0-1.924-0.863-1.924-1.924
		c0-0.139,0.015-0.279,0.046-0.416L0.86,3.41L0.806,3.393C0.397,3.267,0.123,2.895,0.123,2.467c0-0.301,0.068-0.672,0.285-0.85
		C0.159,1.817,0,2.124,0,2.467C0,2.93,0.286,3.336,0.717,3.493C0.692,3.621,0.679,3.752,0.679,3.881
		c0,1.128,0.918,2.046,2.046,2.046c0.453,0,0.896-0.152,1.254-0.429c0.237,0.24,0.562,0.376,0.901,0.376
		c0.523,0,0.973-0.319,1.166-0.773c0.135,0.074,0.287,0.121,0.45,0.133c0.118,0.501,0.551,0.872,1.068,0.909
		c0.142,0.01,0.283-0.005,0.419-0.045c0.24,0.274,0.599,0.447,0.991,0.475c0.443,0.032,0.867-0.124,1.145-0.419
		c0.118,0.052,0.242,0.083,0.372,0.093c0.614,0.044,1.15-0.419,1.195-1.034C11.646,5.76,11.047,6.164,10.5,6.125z"/>
	<path class="st0" d="M5.797,3.344c0.011-0.011,0.023-0.022,0.034-0.033C5.819,3.322,5.808,3.333,5.797,3.344z"/>
</g>
</svg>
