<?xml version="1.0" encoding="utf-8"?>
<!-- Generator: Adobe Illustrator 22.0.1, SVG Export Plug-In . SVG Version: 6.00 Build 0)  -->
<svg version="1.1" id="レイヤー_1" xmlns="http://www.w3.org/2000/svg" xmlns:xlink="http://www.w3.org/1999/xlink" x="0px"
	 y="0px" viewBox="0 0 20 13.317" style="enable-background:new 0 0 20 13.317;" xml:space="preserve">
<style type="text/css">
	.st0{fill:#57B7D8;}
	.st1{fill:#FFFFFF;}
</style>
<path class="st0" d="M17.226,4.15c-0.468-1.84-1.988-3.197-3.812-3.197c-0.532,0-1.037,0.119-1.501,0.327
	C11.004,0.49,9.757,0,8.378,0C6.089,0,4.179,1.354,3.567,3.196C1.596,3.2,0,4.946,0,7.1c0,2.157,1.6,3.905,3.573,3.905
	c0.122,0,0.238-0.026,0.357-0.039c0.356,1.202,1.455,2.084,2.773,2.084c0.781,0,1.487-0.312,2.009-0.814
	c0.808,0.667,1.898,1.082,3.104,1.082c1.82,0,3.378-0.937,4.088-2.278c0.19,0.032,0.383,0.059,0.582,0.059
	c1.941,0,3.515-1.574,3.515-3.515C20,5.897,18.811,4.491,17.226,4.15z"/>
<g>
	<path class="st1" d="M8.53,6.822c0.13,0,0.159,0,0.2,0.108c0.019,0.053,0.122,0.324,0.122,0.348c0,0.026-0.024,0.036-0.038,0.036
		c-0.019,0-0.026-0.01-0.082-0.101C8.604,7.004,8.462,6.901,8.299,6.901c-0.094,0-0.151,0.038-0.166,0.12
		C8.126,7.065,8.126,7.607,8.126,7.708c0,0.067,0,0.622,0.007,0.663c0.022,0.122,0.135,0.125,0.199,0.125
		c0.089,0,0.108,0,0.108,0.038c0,0.038-0.034,0.038-0.072,0.038H7.696c-0.034,0-0.069,0-0.069-0.038
		c0-0.038,0.038-0.038,0.053-0.038c0.141,0,0.231,0,0.255-0.125c0.007-0.038,0.007-0.041,0.007-0.68c0-0.593,0-0.658-0.017-0.704
		C7.9,6.923,7.835,6.901,7.771,6.901c-0.192,0-0.334,0.151-0.432,0.31C7.281,7.305,7.276,7.314,7.254,7.314
		c-0.017,0-0.038-0.014-0.038-0.036c0-0.019,0.108-0.307,0.127-0.355C7.382,6.822,7.42,6.822,7.54,6.822H8.53z"/>
	<path class="st1" d="M9.978,8.619c-0.464,0-0.786-0.379-0.786-0.92s0.319-0.922,0.786-0.922c0.461,0,0.783,0.38,0.783,0.922
		C10.76,8.237,10.441,8.619,9.978,8.619z M10.532,7.677c0-0.221-0.062-0.822-0.555-0.822c-0.538,0-0.557,0.706-0.557,0.865
		c0,0.231,0.07,0.819,0.557,0.819C10.513,8.54,10.532,7.841,10.532,7.677z"/>
	<path class="st1" d="M11.66,6.822c0.091,0,0.684,0,0.684,0.454c0,0.25-0.192,0.469-0.622,0.469h-0.231
		c-0.065,0-0.065,0.019-0.065,0.202c0,0.44,0,0.442,0.026,0.483c0.038,0.055,0.098,0.067,0.161,0.067c0.053,0,0.082,0,0.082,0.038
		c0,0.038-0.034,0.038-0.068,0.038h-0.593c-0.036,0-0.069,0-0.069-0.038c0-0.038,0.036-0.038,0.06-0.038
		c0.082,0,0.184,0,0.209-0.125c0.007-0.038,0.007-0.041,0.007-0.68c0-0.113,0-0.627-0.007-0.668
		c-0.022-0.115-0.125-0.122-0.183-0.122c-0.06,0-0.087,0-0.087-0.039c0-0.041,0.034-0.041,0.069-0.041H11.66z M11.674,7.665
		c0.317,0,0.442-0.175,0.442-0.379c0-0.264-0.194-0.384-0.413-0.384H11.6c-0.173,0-0.173,0.105-0.173,0.315
		c0,0.034,0,0.375,0.002,0.396c0.005,0.036,0.031,0.053,0.062,0.053H11.674z"/>
</g>
<polygon class="st1" points="10,4.522 8.827,5.729 11.173,5.729 "/>
</svg>
