<?xml version="1.0" encoding="utf-8"?>
<!-- Generator: Adobe Illustrator 22.0.1, SVG Export Plug-In . SVG Version: 6.00 Build 0)  -->
<svg version="1.1" id="レイヤー_1" xmlns="http://www.w3.org/2000/svg" xmlns:xlink="http://www.w3.org/1999/xlink" x="0px"
	 y="0px" viewBox="0 0 20 11.117" style="enable-background:new 0 0 20 11.117;" xml:space="preserve">
<style type="text/css">
	.st0{fill:#FFFFFF;}
	.st1{fill:#D9D9D9;}
</style>
<g>
	<path class="st0" d="M0.009,7.819c0,0-0.305,2.458,2.634,2.329c0.835,1.317,2.201,0.819,2.795,0.418
		c0.835,0.55,2.265,0.436,2.964-1.155c0.892,1.091,1.293,0.931,1.952,0.754c0.493,0.443,2.799,1.15,2.861-1.489
		c0.804-0.272,1.315-0.888,1.187-1.772c0.466,0.46,1.381,0.402,2.136,0c0.755,0.46,2.506-0.305,2.458-1.96
		c0.577-0.441,0.908-1.169,0.9-1.847c-0.009-0.678-0.083-1.294-1.021-1.723c-0.938-0.429-6.279-2.864-14.648,0
		C0.612,2.952,0.006,7.382,0.009,7.819z"/>
	<g>
		<g>
			<path class="st1" d="M14.265,6.579c0.247,0.432,0.029,1.164-0.319,1.557c-0.192,0.216-0.456,0.356-0.743,0.392l-0.156,0.01
				l0.053,0.134c0.101,0.476-0.031,0.978-0.354,1.341c-0.563,0.635-1.538,0.694-2.174,0.131c-0.026-0.023-0.051-0.047-0.075-0.072
				l-0.038-0.1l-0.099,0.075C9.902,10.264,9.36,10.186,8.98,9.85C8.678,9.582,8.294,9.205,8.315,8.83l0,0
				c-0.02,0.44,0.151,0.885,0.505,1.2c0.43,0.382,1.037,0.484,1.565,0.27c0.009,0.009,0.018,0.017,0.028,0.025
				c0.735,0.651,1.862,0.583,2.514-0.152c0.345-0.389,0.502-0.915,0.431-1.428c0.297-0.064,0.566-0.221,0.769-0.45
				C14.559,7.808,14.597,7.105,14.265,6.579L14.265,6.579z"/>
		</g>
	</g>
	<g>
		<g>
			<path class="st1" d="M8.214,1.729c0.874,0.375,1.22,1.609,0.872,2.502C9.027,4.382,8.947,4.525,8.849,4.655L8.755,4.78L8.9,4.839
				c0.895,0.363,1.338,1.39,0.988,2.289c-0.256,0.658-0.877,1.101-1.583,1.13L8.148,8.265l0.047,0.15
				c0.122,0.388,0.108,0.794-0.04,1.174c-0.355,0.912-1.387,1.366-2.299,1.011c-0.11-0.043-0.216-0.097-0.315-0.16l-0.075-0.048
				l-0.068,0.058c-0.499,0.426-1.188,0.543-1.799,0.306c-0.364-0.142-0.664-0.392-0.868-0.723L2.684,9.954L2.596,9.978
				c-0.375,0.107-0.765,0.088-1.128-0.054C0.831,9.677,0.184,9.173,0.114,8.536l0,0c0.095,0.704,0.559,1.338,1.267,1.613
				c0.385,0.15,0.796,0.178,1.195,0.083c0.23,0.339,0.552,0.596,0.937,0.746c0.666,0.259,1.415,0.147,1.975-0.291
				c0.09,0.052,0.185,0.098,0.282,0.136c1.036,0.403,2.207-0.111,2.611-1.148c0.15-0.384,0.178-0.792,0.085-1.189
				c0.739-0.085,1.375-0.572,1.648-1.272c0.379-0.975-0.061-2.082-0.985-2.539C9.2,4.564,9.261,4.444,9.31,4.318
				C9.707,3.299,9.215,2.151,8.214,1.729L8.214,1.729z"/>
		</g>
	</g>
	<path class="st1" d="M18.874,1.374L18.846,1.46c0.751,0.258,1.147,1.342,0.847,2.32c-0.136,0.445-0.401,0.829-0.744,1.082
		l-0.043,0.032l0.001,0.053c0.007,0.382-0.108,0.762-0.332,1.098c-0.467,0.703-1.296,1.021-1.97,0.756l-0.053-0.021l-0.046,0.033
		c-0.186,0.135-0.395,0.232-0.622,0.288c-0.431,0.107-0.873,0.055-1.244-0.145c-0.43-0.232-0.686-0.466-0.783-0.717l-0.085,0.032
		c0.138,0.37,0.404,0.669,0.769,0.867c0.359,0.193,0.774,0.264,1.189,0.204c0.068-0.01,0.136-0.023,0.204-0.04
		c0.234-0.058,0.452-0.155,0.648-0.289c0.752,0.263,1.659-0.093,2.165-0.854c0.237-0.356,0.363-0.758,0.367-1.163
		c0.358-0.279,0.633-0.688,0.776-1.156c0.063-0.206,0.099-0.417,0.107-0.628C20.032,2.332,19.58,1.593,18.874,1.374z"/>
	<g>
		<g>
			<path class="st1" d="M11.478,2.124c0.159,0.338,0.468,0.586,0.831,0.671c-0.008,0.172,0.026,0.344,0.099,0.5
				c0.248,0.527,0.878,0.754,1.405,0.506c0.476-0.224,0.712-0.758,0.562-1.257c0.521-0.324,0.724-1,0.461-1.56
				c-0.159-0.339-0.455-0.57-0.791-0.66l0,0c0.327,0.071,0.547,0.381,0.701,0.706c0.245,0.521,0.035,1.155-0.465,1.44l-0.04,0.023
				l0.015,0.044c0.159,0.457-0.052,0.957-0.49,1.163c-0.471,0.222-1.035,0.019-1.256-0.452c-0.072-0.153-0.102-0.324-0.086-0.492
				l0.005-0.051l-0.05-0.01C12.03,2.628,11.655,2.432,11.478,2.124"/>
		</g>
	</g>
</g>
</svg>
