<?xml version="1.0" encoding="utf-8"?>
<!-- Generator: Adobe Illustrator 22.0.1, SVG Export Plug-In . SVG Version: 6.00 Build 0)  -->
<svg version="1.1" id="レイヤー_1" xmlns="http://www.w3.org/2000/svg" xmlns:xlink="http://www.w3.org/1999/xlink" x="0px"
	 y="0px" viewBox="0 0 20 5.013" style="enable-background:new 0 0 20 5.013;" xml:space="preserve">
<style type="text/css">
	.st0{fill:#F7AB03;}
</style>
<path class="st0" d="M20,3.916l-0.033-0.401l-2.138-0.037c0.521-1.296,1.331-3.357,1.331-3.357L18.29,0l-2.197,2.28
	c0,0-1,0.635-3.225,0.226C11.753,2.301,9.552,1.865,7.48,1.487l0.204-0.465L7.306,1.038L7.077,1.414
	C5.171,1.071,3.444,0.795,2.875,0.82C1.654,0.873,1.469,1.439,1.17,1.416s-1.362,0.233-1.14,0.552C0.253,2.286,1.597,3,3.13,3.262
	s1.533,0.262,1.533,0.262l0.075,0.355l1.748,0.4l0.832-0.3c0,0,5.316,1.044,6.24,1.033c0.925-0.012,3.585,0.11,3.909-0.65
	c0.036-0.083,0.084-0.2,0.141-0.341C18.715,3.972,20,3.916,20,3.916z"/>
</svg>
