<?xml version="1.0" encoding="utf-8"?>
<!-- Generator: Adobe Illustrator 22.0.1, SVG Export Plug-In . SVG Version: 6.00 Build 0)  -->
<svg version="1.1" id="レイヤー_1" xmlns="http://www.w3.org/2000/svg" xmlns:xlink="http://www.w3.org/1999/xlink" x="0px"
	 y="0px" viewBox="0 0 20 12.035" style="enable-background:new 0 0 20 12.035;" xml:space="preserve">
<style type="text/css">
	.st0{fill:#FFFFFF;}
	.st1{fill:#D9D9D9;}
</style>
<g>
	<path class="st0" d="M19.905,7.612c-0.319-4.21-3.782-7.494-8.002-7.583c-2.63-0.055-5.306-0.043-6.748,0.167
		C1.711,0.697,1.651,0.788,1.651,0.788S1.119,0.877,1.066,3.047C0,4.232-0.71,5.451,1.317,6.725c-0.154,0.706-0.323,2.35,1.83,3.749
		c2.09,0.753,2.96,0.126,3.641-0.377c0.502,0.836,2.642,1.076,3.599-0.673c0.76,0.207,0.92,0.202,0.92,0.202
		s-0.106,1.673,2.351,1.512c1.022,1.022,2.691,1.04,3.659,0.09c0.987,0.395,2.514,0.126,2.683-1.758
		C20,9.033,19.963,8.376,19.905,7.612z"/>
	<g>
		<g>
			<path class="st1" d="M6.567,3.372C6.428,3.784,5.823,4.066,5.365,4.066c-0.253,0-0.496-0.092-0.686-0.259L4.582,3.711
				L4.525,3.824C4.272,4.165,3.868,4.369,3.444,4.369C2.703,4.369,2.1,3.766,2.1,3.025c0-0.031,0.001-0.061,0.003-0.091l0.043-0.082
				L2.04,2.83C1.633,2.655,1.37,2.256,1.37,1.813c0-0.353,0.023-0.822,0.281-1.025l0,0C1.351,1.03,1.159,1.399,1.159,1.813
				c0,0.502,0.284,0.957,0.73,1.179c0,0.011,0,0.022,0,0.033c0,0.857,0.697,1.555,1.555,1.555c0.454,0,0.888-0.202,1.182-0.545
				C4.84,4.191,5.099,4.276,5.365,4.276C5.935,4.276,6.416,3.894,6.567,3.372L6.567,3.372z"/>
		</g>
	</g>
	<g>
		<g>
			<path class="st1" d="M20,9.711c-0.068,0.936-1.094,1.627-2.029,1.559c-0.221-0.016-0.433-0.074-0.63-0.171l-0.073-0.036
				l-0.053,0.061c-0.43,0.494-1.118,0.757-1.84,0.705c-0.64-0.046-1.221-0.335-1.595-0.791l-0.046-0.056l-0.069,0.023
				c-0.227,0.076-0.464,0.105-0.704,0.088c-0.818-0.059-1.499-0.663-1.654-1.467l-0.016-0.082l-0.084-0.003
				c-0.024-0.001-0.048-0.002-0.072-0.003C10.208,9.47,9.46,8.588,9.527,7.661C9.56,7.201,9.658,6.738,9.98,6.455l0,0
				c-0.347,0.316-0.578,0.76-0.615,1.264C9.29,8.761,10.076,9.67,11.117,9.747c0.202,0.857,0.943,1.492,1.828,1.556
				c0.244,0.018,0.485-0.008,0.717-0.077c0.411,0.469,1.025,0.764,1.696,0.813c0.758,0.055,1.484-0.213,1.96-0.718
				c0.201,0.089,0.415,0.143,0.636,0.159C19.007,11.556,19.924,10.763,20,9.711"/>
		</g>
	</g>
	<g>
		<g>
			<path class="st1" d="M8.353,10.632c-0.553,0-1.083-0.236-1.454-0.646L6.832,9.911L6.754,9.975
				c-0.587,0.482-1.328,0.748-2.089,0.748c-1.815,0-3.292-1.477-3.292-3.292c0-0.237,0.026-0.477,0.078-0.712l0.021-0.095
				L1.38,6.596C0.68,6.38,0.21,5.742,0.21,5.01c0-0.516,0.117-1.15,0.487-1.455l0,0C0.272,3.898,0,4.423,0,5.01
				c0,0.793,0.489,1.487,1.227,1.756C1.184,6.986,1.163,7.209,1.163,7.43c0,1.931,1.571,3.502,3.502,3.502
				c0.776,0,1.534-0.26,2.145-0.734c0.406,0.41,0.963,0.644,1.542,0.644c1.038,0,1.907-0.733,2.119-1.708l0,0
				C10.264,9.993,9.274,10.632,8.353,10.632z"/>
		</g>
	</g>
</g>
</svg>
