<?xml version="1.0" encoding="utf-8"?>
<!-- Generator: Adobe Illustrator 22.0.1, SVG Export Plug-In . SVG Version: 6.00 Build 0)  -->
<svg version="1.1" id="レイヤー_1" xmlns="http://www.w3.org/2000/svg" xmlns:xlink="http://www.w3.org/1999/xlink" x="0px"
	 y="0px" viewBox="0 0 20 18.241" style="enable-background:new 0 0 20 18.241;" xml:space="preserve">
<g>
	<path d="M15.969,0H4.035C2.906,0,1.987,0.919,1.987,2.048v11.687c0,1.009,0.735,1.844,1.696,2.012v1.236
		c0,0.694,0.564,1.258,1.258,1.258s1.258-0.564,1.258-1.258v-1.2h7.606v1.2c0,0.694,0.564,1.258,1.258,1.258
		s1.258-0.564,1.258-1.258v-1.236c0.961-0.168,1.696-1.004,1.696-2.012V2.048C18.017,0.919,17.099,0,15.969,0z M5.513,16.983
		c0,0.315-0.257,0.572-0.572,0.572c-0.315,0-0.572-0.256-0.572-0.572v-1.2h1.144V16.983z M15.063,17.555
		c-0.315,0-0.572-0.256-0.572-0.572v-1.2h1.144v1.2C15.635,17.298,15.379,17.555,15.063,17.555z M17.331,13.735
		c0,0.751-0.611,1.362-1.362,1.362H4.035c-0.751,0-1.362-0.611-1.362-1.362V2.048c0-0.751,0.611-1.362,1.362-1.362h11.934
		c0.751,0,1.362,0.611,1.362,1.362V13.735z"/>
	<path d="M15.56,2.781H4.445v6.325l3.071,0.412c0.825,0.111,1.656,0.166,2.486,0.166c0.831,0,1.661-0.055,2.486-0.166l3.071-0.412
		V2.781z M14.987,8.606l-2.575,0.345c-1.6,0.215-3.221,0.215-4.821,0L5.017,8.606V3.354h9.97V8.606z"/>
	<rect x="19.314" y="2.973" width="0.686" height="4.199"/>
	<rect y="2.973" width="0.686" height="4.199"/>
	<circle cx="15.443" cy="12.873" r="0.879"/>
	<circle cx="4.463" cy="12.873" r="0.879"/>
</g>
</svg>
