<?xml version="1.0" encoding="utf-8"?>
<!-- Generator: Adobe Illustrator 22.0.1, SVG Export Plug-In . SVG Version: 6.00 Build 0)  -->
<svg version="1.1" id="レイヤー_1" xmlns="http://www.w3.org/2000/svg" xmlns:xlink="http://www.w3.org/1999/xlink" x="0px"
	 y="0px" viewBox="0 0 20 16.223" style="enable-background:new 0 0 20 16.223;" xml:space="preserve">
<g>
	<g>
		<polygon points="4.089,15.693 1.821,15.693 1.821,5.308 1.288,5.308 1.288,16.226 4.621,16.226 4.621,5.308 4.089,5.308 		"/>
		<polygon points="5.784,1.513 0,1.513 0,5.308 1.288,5.308 1.288,4.775 0.533,4.775 0.533,2.045 5.252,2.045 5.252,4.775 
			4.621,4.775 4.621,5.308 5.784,5.308 		"/>
	</g>
	<rect x="1.744" width="2.556" height="0.533"/>
	<g>
		<polygon points="17.781,9.502 17.781,10.035 19.467,10.035 19.467,15.693 7.484,15.693 7.484,10.035 11.168,10.035 11.168,9.502 
			6.951,9.502 6.951,16.226 20,16.226 20,9.502 		"/>
		<polygon points="11.701,7.46 17.248,7.46 17.248,10.035 17.781,10.035 17.781,6.927 11.168,6.927 11.168,10.035 11.701,10.035 		
			"/>
	</g>
	<polygon points="10.042,4.527 9.067,3.685 9.416,3.282 10.171,3.935 14.933,2.546 15.081,3.057 	"/>
	<rect x="11.871" y="1.664" transform="matrix(0.6663 -0.7457 0.7457 0.6663 2.0278 9.9557)" width="0.533" height="2.097"/>
</g>
</svg>
