<?xml version="1.0" encoding="utf-8"?>
<!-- Generator: Adobe Illustrator 22.0.1, SVG Export Plug-In . SVG Version: 6.00 Build 0)  -->
<svg version="1.1" id="レイヤー_1" xmlns="http://www.w3.org/2000/svg" xmlns:xlink="http://www.w3.org/1999/xlink" x="0px"
	 y="0px" viewBox="0 0 20 20" style="enable-background:new 0 0 20 20;" xml:space="preserve">
<style type="text/css">
	.st0{fill:#FFFFFF;}
</style>
<g>
	<path class="st0" d="M10,1.802c2.67,0,2.986,0.01,4.041,0.058c0.975,0.044,1.504,0.207,1.857,0.344
		c0.467,0.181,0.8,0.398,1.15,0.748c0.35,0.35,0.567,0.683,0.748,1.15c0.137,0.352,0.3,0.882,0.344,1.857
		C18.188,7.014,18.198,7.33,18.198,10s-0.01,2.986-0.058,4.041c-0.044,0.975-0.207,1.504-0.344,1.857
		c-0.181,0.467-0.398,0.8-0.748,1.15c-0.35,0.35-0.683,0.567-1.15,0.748c-0.352,0.137-0.882,0.3-1.857,0.344
		c-1.054,0.048-1.371,0.058-4.041,0.058s-2.987-0.01-4.041-0.058c-0.975-0.044-1.504-0.207-1.857-0.344
		c-0.467-0.181-0.8-0.398-1.15-0.748c-0.35-0.35-0.567-0.683-0.748-1.15c-0.137-0.352-0.3-0.882-0.344-1.857
		C1.812,12.986,1.802,12.67,1.802,10s0.01-2.986,0.058-4.041c0.044-0.975,0.207-1.504,0.344-1.857c0.181-0.467,0.398-0.8,0.748-1.15
		c0.35-0.35,0.683-0.567,1.15-0.748c0.352-0.137,0.882-0.3,1.857-0.344C7.014,1.812,7.33,1.802,10,1.802 M10,0
		C7.284,0,6.944,0.012,5.877,0.06C4.813,0.109,4.086,0.278,3.45,0.525C2.792,0.781,2.234,1.122,1.678,1.678
		C1.122,2.234,0.781,2.792,0.525,3.45C0.278,4.086,0.109,4.813,0.06,5.877C0.012,6.944,0,7.284,0,10c0,2.716,0.012,3.056,0.06,4.123
		c0.049,1.064,0.218,1.791,0.465,2.427c0.256,0.658,0.597,1.215,1.153,1.771c0.556,0.556,1.114,0.898,1.771,1.153
		c0.636,0.247,1.363,0.416,2.427,0.465C6.944,19.989,7.284,20,10,20s3.056-0.011,4.123-0.06c1.064-0.049,1.791-0.218,2.427-0.465
		c0.658-0.256,1.215-0.597,1.771-1.153c0.556-0.556,0.898-1.114,1.153-1.771c0.247-0.636,0.416-1.363,0.465-2.427
		C19.988,13.056,20,12.716,20,10s-0.012-3.056-0.06-4.123c-0.049-1.064-0.218-1.791-0.465-2.427
		c-0.256-0.658-0.597-1.215-1.153-1.771c-0.556-0.556-1.114-0.898-1.771-1.153c-0.636-0.247-1.363-0.416-2.427-0.465
		C13.056,0.012,12.716,0,10,0L10,0z"/>
	<path class="st0" d="M10,4.865c-2.836,0-5.135,2.299-5.135,5.135S7.164,15.135,10,15.135s5.135-2.299,5.135-5.135
		S12.836,4.865,10,4.865z M10,13.333c-1.841,0-3.333-1.492-3.333-3.333c0-1.841,1.492-3.333,3.333-3.333
		c1.841,0,3.333,1.492,3.333,3.333C13.333,11.841,11.841,13.333,10,13.333z"/>
	<circle class="st0" cx="15.338" cy="4.662" r="1.2"/>
</g>
</svg>
