<svg xmlns="http://www.w3.org/2000/svg" width="486.683" height="298" viewBox="0 0 486.683 298">
  <defs>
    <style>
      .cls-1 {
        fill: #57b7d8;
      }

      .cls-2 {
        fill: #fff;
      }

      .cls-3 {
        fill: #090909;
        font-size: 60px;
        font-family: YuMincho-Demibold, Yu Mincho;
        font-weight: 300;
      }
    </style>
  </defs>
  <g id="グループ_3" data-name="グループ 3" transform="translate(-201 -176)">
    <g id="グループ_2" data-name="グループ 2">
      <g id="site-id" transform="translate(201 185.193)">
        <path id="パス_20" data-name="パス 20" class="cls-1" d="M445.888,41.131A139.314,139.314,0,0,0,259.4,31.657c-18.818-13.3-43.152-21.316-69.724-21.316-46.656,0-86.4,24.723-101.422,59.309a98.886,98.886,0,0,0,10.642,197.2c35.17,0,50.091-18.364,67.612-46.039h0c16.022-20.569,55.889-16.486,65.94-14.637,8.22,1.511-13.462-.408,0,0,21.1-4.4,111.008,15.176,120.45,24.617,54.377,54.377,38.586,61.722,93,7.345A139.317,139.317,0,0,0,445.888,41.131Z" transform="translate(0 -0.345)"/>
        <path id="パス_21" data-name="パス 21" class="cls-2" d="M175.973,37.267l-.26-3.342L157.8,33.6c4.38-10.869,11.161-28.13,11.161-28.13l-7.3-1.006-18.4,19.11S134.9,28.9,116.242,25.457c-9.344-1.72-27.805-5.386-45.163-8.533L72.8,13.03l-3.147.13-1.979,3.147c-15.963-2.888-30.433-5.191-35.2-5-10.253.454-11.81,5.191-14.308,5s-11.421,1.947-9.539,4.64c1.882,2.66,13.14,8.663,25.988,10.837L47.459,33.99l.616,2.985,14.633,3.342,6.976-2.531s44.547,8.76,52.3,8.663,30.044.941,32.769-5.451c.292-.681.714-1.687,1.2-2.855C165.2,37.753,175.973,37.267,175.973,37.267Z" transform="translate(263.005 129.21)"/>
      </g>
      <text id="新_町_川" data-name="新
町
川" class="cls-3" transform="translate(324 235)"><tspan x="0" y="0">新</tspan><tspan x="0" y="60">町</tspan><tspan x="0" y="120">川</tspan></text>
      <text id="空_港" data-name="空
港" class="cls-3" transform="translate(255 396)"><tspan x="0" y="0">空</tspan><tspan x="0" y="60">港</tspan></text>
    </g>
    <rect id="長方形_1" data-name="長方形 1" class="cls-2" width="5" height="25" transform="translate(404 366)"/>
    <rect id="長方形_2" data-name="長方形 2" class="cls-2" width="5" height="25" transform="translate(414 376)"/>
    <rect id="長方形_3" data-name="長方形 3" class="cls-2" width="5" height="25" transform="translate(428 370)"/>
  </g>
</svg>
