<?xml version="1.0" encoding="utf-8"?>
<!-- Generator: Adobe Illustrator 22.0.1, SVG Export Plug-In . SVG Version: 6.00 Build 0)  -->
<svg version="1.1" id="レイヤー_1" xmlns="http://www.w3.org/2000/svg" xmlns:xlink="http://www.w3.org/1999/xlink" x="0px"
	 y="0px" viewBox="0 0 20 16.267" style="enable-background:new 0 0 20 16.267;" xml:space="preserve">
<style type="text/css">
	.st0{fill:#FFFFFF;}
</style>
<g id="Logo__x2014__FIXED">
	<g>
		<path class="st0" d="M6.283,16.263c7.547,0,11.677-6.259,11.677-11.677c0-0.176,0-0.352-0.008-0.528
			c0.8-0.576,1.497-1.305,2.049-2.129c-0.736,0.328-1.529,0.544-2.361,0.648c0.848-0.504,1.497-1.313,1.809-2.273
			c-0.792,0.472-1.673,0.808-2.609,0.992C16.086,0.496,15.022,0,13.846,0C11.581,0,9.74,1.841,9.74,4.106
			c0,0.32,0.04,0.632,0.104,0.936c-3.409-0.168-6.435-1.809-8.459-4.29C1.032,1.361,0.832,2.065,0.832,2.817
			c0,1.425,0.728,2.681,1.825,3.417C1.985,6.21,1.353,6.026,0.8,5.722c0,0.016,0,0.032,0,0.056c0,1.985,1.417,3.649,3.289,4.026
			C3.745,9.9,3.385,9.948,3.009,9.948c-0.264,0-0.52-0.024-0.768-0.072c0.52,1.633,2.041,2.817,3.834,2.849
			c-1.409,1.104-3.177,1.761-5.098,1.761C0.648,14.486,0.32,14.47,0,14.43C1.809,15.582,3.97,16.263,6.283,16.263"/>
	</g>
</g>
</svg>
